<?xml version="1.0" encoding="UTF-8"?>
<svg id="Layer_2" data-name="Layer 2" xmlns="http://www.w3.org/2000/svg" xmlns:xlink="http://www.w3.org/1999/xlink" viewBox="0 0 499 96">
  <defs>
    <style>
      .cls-1 {
        fill: #fff;
        filter: url(#outer-glow-1);
      }

      .cls-2 {
        fill: #6032c2;
      }
    </style>
    <filter id="outer-glow-1" filterUnits="userSpaceOnUse">
      <feOffset dx="0" dy="0"/>
      <feGaussianBlur result="blur" stdDeviation="3"/>
      <feFlood flood-color="#6032c4" flood-opacity=".2"/>
      <feComposite in2="blur" operator="in"/>
      <feComposite in="SourceGraphic"/>
    </filter>
  </defs>
  <g id="Layer_1-2" data-name="Layer 1">
    <g>
      <rect class="cls-1" x="9.26" y="9.23" width="480.48" height="76.79" rx="10" ry="10"/>
      <g>
        <path class="cls-2" d="M149.11,56.35h-3.46l-1.89-4.5h-8.81l-1.92,4.5h-3.35l8.2-18.77h3.03l8.2,18.77Zm-9.77-14.86l-3.19,7.46h6.42l-3.22-7.46Z"/>
        <path class="cls-2" d="M165.87,54.74c-.52,.4-1.09,.75-1.69,1.04-.6,.29-1.26,.51-1.98,.67-.72,.15-1.51,.23-2.38,.23-1.37,0-2.63-.25-3.78-.75-1.15-.5-2.15-1.18-3-2.04-.84-.86-1.5-1.88-1.98-3.05-.48-1.17-.72-2.43-.72-3.78s.23-2.58,.71-3.75c.47-1.17,1.13-2.2,1.98-3.07,.85-.88,1.86-1.57,3.03-2.08s2.47-.76,3.89-.76c.85,0,1.63,.07,2.33,.21,.7,.14,1.34,.34,1.93,.6,.59,.26,1.13,.56,1.62,.92,.5,.36,.97,.75,1.41,1.17l-2.1,2.42c-.75-.69-1.54-1.25-2.37-1.68-.83-.43-1.78-.64-2.85-.64-.89,0-1.71,.17-2.46,.52-.75,.35-1.41,.82-1.96,1.41-.55,.59-.98,1.29-1.28,2.09s-.45,1.66-.45,2.58,.15,1.79,.45,2.6,.73,1.51,1.28,2.12c.55,.6,1.2,1.08,1.96,1.42,.75,.35,1.57,.52,2.46,.52,1.14,0,2.11-.22,2.93-.65,.82-.43,1.62-1.03,2.42-1.77l2.1,2.13c-.48,.51-.98,.97-1.5,1.37Z"/>
        <path class="cls-2" d="M174.05,48.5v7.85h-3.25v-18.64h3.25v7.75h8.94v-7.75h3.25v18.64h-3.25v-7.85h-8.94Z"/>
        <path class="cls-2" d="M202.99,56.35l-4.59-6.5h-4.11v6.5h-3.25v-18.64h8.31c1.06,0,2.03,.14,2.89,.41,.86,.28,1.59,.67,2.18,1.17,.59,.51,1.05,1.13,1.37,1.86,.32,.74,.48,1.56,.48,2.46,0,.78-.11,1.48-.33,2.09-.22,.61-.53,1.15-.92,1.62-.39,.47-.86,.87-1.4,1.2-.54,.33-1.14,.58-1.8,.76l5.03,7.05h-3.86Zm-1.07-14.89c-.68-.53-1.63-.79-2.86-.79h-4.78v6.28h4.81c1.17,0,2.11-.29,2.8-.86,.69-.57,1.04-1.34,1.04-2.3,0-1.03-.34-1.81-1.02-2.34Z"/>
        <path class="cls-2" d="M228.23,50.74c-.48,1.17-1.15,2.2-2.02,3.08-.87,.88-1.9,1.58-3.09,2.09-1.19,.51-2.5,.77-3.94,.77s-2.75-.25-3.94-.76-2.21-1.19-3.06-2.06c-.85-.87-1.52-1.89-2-3.06-.48-1.17-.72-2.41-.72-3.73s.24-2.56,.72-3.73c.48-1.17,1.15-2.2,2.02-3.07,.87-.88,1.9-1.58,3.09-2.09s2.5-.77,3.94-.77,2.75,.25,3.94,.76c1.19,.51,2.21,1.19,3.06,2.06,.85,.87,1.52,1.89,2,3.06,.48,1.17,.72,2.41,.72,3.73s-.24,2.56-.72,3.73Zm-3.18-6.24c-.31-.81-.75-1.51-1.3-2.12s-1.23-1.08-2.01-1.44c-.78-.35-1.63-.53-2.56-.53s-1.77,.17-2.54,.52c-.77,.35-1.43,.82-1.98,1.41-.55,.59-.98,1.3-1.29,2.1s-.47,1.66-.47,2.57,.16,1.76,.47,2.57,.75,1.51,1.3,2.12,1.23,1.08,2.01,1.44c.78,.35,1.63,.53,2.56,.53s1.77-.17,2.54-.52c.77-.35,1.43-.82,1.98-1.41,.55-.59,.98-1.29,1.29-2.1,.31-.81,.47-1.66,.47-2.57s-.16-1.76-.47-2.57Z"/>
        <path class="cls-2" d="M242.1,51.78h-.11l-5.83-8.73v13.31h-3.25v-18.64h3.49l5.67,8.81,5.67-8.81h3.49v18.64h-3.25v-13.36l-5.88,8.79Z"/>
        <path class="cls-2" d="M273.86,56.35h-3.46l-1.89-4.5h-8.81l-1.92,4.5h-3.35l8.2-18.77h3.03l8.2,18.77Zm-9.77-14.86l-3.19,7.46h6.42l-3.22-7.46Z"/>
        <path class="cls-2" d="M282.54,56.35h-3.3v-15.6h-5.91v-3.04h15.12v3.04h-5.91v15.6Z"/>
        <path class="cls-2" d="M308.84,50.74c-.48,1.17-1.15,2.2-2.02,3.08-.87,.88-1.9,1.58-3.09,2.09-1.19,.51-2.5,.77-3.94,.77s-2.75-.25-3.94-.76-2.21-1.19-3.06-2.06c-.85-.87-1.52-1.89-2-3.06-.48-1.17-.72-2.41-.72-3.73s.24-2.56,.72-3.73c.48-1.17,1.15-2.2,2.02-3.07,.87-.88,1.9-1.58,3.09-2.09s2.5-.77,3.94-.77,2.75,.25,3.94,.76c1.19,.51,2.21,1.19,3.06,2.06,.85,.87,1.52,1.89,2,3.06,.48,1.17,.72,2.41,.72,3.73s-.24,2.56-.72,3.73Zm-3.18-6.24c-.31-.81-.75-1.51-1.3-2.12s-1.23-1.08-2.01-1.44c-.78-.35-1.63-.53-2.56-.53s-1.77,.17-2.54,.52c-.77,.35-1.43,.82-1.98,1.41-.55,.59-.98,1.3-1.29,2.1s-.47,1.66-.47,2.57,.16,1.76,.47,2.57,.75,1.51,1.3,2.12,1.23,1.08,2.01,1.44c.78,.35,1.63,.53,2.56,.53s1.77-.17,2.54-.52c.77-.35,1.43-.82,1.98-1.41,.55-.59,.98-1.29,1.29-2.1,.31-.81,.47-1.66,.47-2.57s-.16-1.76-.47-2.57Z"/>
        <path class="cls-2" d="M327.37,46.74c-.39,.8-.92,1.46-1.6,2-.68,.53-1.47,.94-2.37,1.21-.91,.28-1.88,.41-2.91,.41h-3.71v5.99h-3.25v-18.64h7.35c1.08,0,2.06,.15,2.94,.44s1.62,.71,2.24,1.26c.61,.55,1.08,1.21,1.41,1.97,.33,.76,.49,1.62,.49,2.58,0,1.05-.2,1.97-.59,2.77Zm-3.84-5.23c-.73-.56-1.71-.84-2.94-.84h-3.82v6.74h3.82c1.25,0,2.23-.31,2.95-.92,.72-.61,1.08-1.43,1.08-2.45,0-1.12-.37-1.96-1.1-2.53Z"/>
        <path class="cls-2" d="M334.24,43.55c.12,.27,.35,.51,.68,.75,.33,.23,.78,.44,1.36,.64,.58,.2,1.31,.4,2.2,.61,.98,.25,1.85,.52,2.6,.83,.76,.3,1.38,.67,1.88,1.11,.5,.43,.88,.94,1.13,1.52,.26,.58,.39,1.25,.39,2.04,0,.89-.16,1.68-.49,2.37s-.78,1.28-1.36,1.76c-.58,.48-1.28,.84-2.09,1.09-.82,.25-1.71,.37-2.69,.37-1.44,0-2.81-.24-4.13-.73-1.31-.49-2.53-1.24-3.65-2.25l1.97-2.34c.9,.78,1.82,1.38,2.74,1.8s1.97,.62,3.14,.62c1.01,0,1.81-.21,2.41-.64s.89-1,.89-1.73c0-.34-.06-.64-.17-.91-.12-.27-.33-.51-.64-.73-.31-.22-.74-.43-1.28-.63-.54-.2-1.25-.4-2.12-.61-1-.23-1.88-.49-2.66-.77-.77-.28-1.42-.64-1.95-1.06s-.93-.94-1.2-1.54-.41-1.34-.41-2.21c0-.82,.16-1.56,.48-2.22,.32-.67,.75-1.24,1.31-1.72,.55-.48,1.22-.85,2-1.1,.78-.26,1.63-.39,2.55-.39,1.37,0,2.6,.2,3.69,.6,1.09,.4,2.12,.98,3.07,1.74l-1.76,2.48c-.85-.62-1.7-1.1-2.53-1.42-.83-.33-1.68-.49-2.53-.49-.96,0-1.7,.22-2.24,.65-.53,.44-.8,.96-.8,1.58,0,.37,.06,.69,.19,.96Z"/>
        <path class="cls-2" d="M351.78,37.72v18.64h-3.25v-18.64h3.25Z"/>
        <path class="cls-2" d="M374.62,56.35h-3.46l-1.89-4.5h-8.81l-1.92,4.5h-3.35l8.2-18.77h3.03l8.2,18.77Zm-9.77-14.86l-3.19,7.46h6.42l-3.22-7.46Z"/>
      </g>
    </g>
  </g>
</svg>