<?xml version="1.0" encoding="UTF-8"?>
<svg id="Layer_2" data-name="Layer 2" xmlns="http://www.w3.org/2000/svg" xmlns:xlink="http://www.w3.org/1999/xlink" viewBox="0 0 499 96">
  <defs>
    <style>
      .cls-1 {
        fill: #fff;
        filter: url(#outer-glow-1);
      }

      .cls-2 {
        fill: #6032c2;
      }
    </style>
    <filter id="outer-glow-1" filterUnits="userSpaceOnUse">
      <feOffset dx="0" dy="0"/>
      <feGaussianBlur result="blur" stdDeviation="3"/>
      <feFlood flood-color="#6032c4" flood-opacity=".2"/>
      <feComposite in2="blur" operator="in"/>
      <feComposite in="SourceGraphic"/>
    </filter>
  </defs>
  <g id="Layer_1-2" data-name="Layer 1">
    <g>
      <rect class="cls-1" x="9.26" y="9.27" width="480.48" height="76.79" rx="10" ry="10"/>
      <g>
        <path class="cls-2" d="M143.65,50.74c-.48,1.14-1.16,2.13-2.04,2.97-.88,.83-1.93,1.49-3.14,1.97-1.22,.48-2.55,.72-4.01,.72h-6.95v-18.64h6.95c1.46,0,2.79,.24,4.01,.71,1.22,.47,2.26,1.12,3.14,1.96,.88,.83,1.56,1.82,2.04,2.96,.48,1.14,.72,2.36,.72,3.67s-.24,2.54-.72,3.69Zm-3.18-6.19c-.31-.78-.75-1.45-1.31-2.02s-1.24-1.02-2.04-1.34c-.8-.32-1.69-.48-2.67-.48h-3.68v12.73h3.68c.98,0,1.87-.16,2.67-.47,.8-.31,1.48-.75,2.04-1.31s1-1.23,1.31-2.01c.31-.78,.47-1.63,.47-2.55s-.16-1.78-.47-2.55Z"/>
        <path class="cls-2" d="M162.13,40.72h-10.54v4.79h9.34v2.96h-9.34v4.98h10.68v2.96h-13.92v-18.64h13.79v2.96Z"/>
        <path class="cls-2" d="M181.83,48.33c0,1.38-.19,2.6-.57,3.65-.38,1.05-.92,1.92-1.61,2.62-.69,.7-1.53,1.22-2.52,1.57-.98,.35-2.09,.52-3.31,.52s-2.3-.17-3.27-.52c-.98-.35-1.81-.87-2.5-1.56-.69-.69-1.22-1.55-1.6-2.57-.37-1.02-.56-2.21-.56-3.55v-10.73h3.25v10.6c0,1.74,.42,3.06,1.26,3.97s2,1.36,3.48,1.36,2.61-.44,3.45-1.3c.84-.87,1.26-2.17,1.26-3.89v-10.73h3.25v10.57Z"/>
        <path class="cls-2" d="M194.21,56.4h-3.3v-15.6h-5.91v-3.04h15.12v3.04h-5.91v15.6Z"/>
        <path class="cls-2" d="M217.37,40.72h-10.54v4.79h9.34v2.96h-9.34v4.98h10.68v2.96h-13.92v-18.64h13.79v2.96Z"/>
        <path class="cls-2" d="M233.37,56.4l-4.59-6.5h-4.11v6.5h-3.25v-18.64h8.31c1.06,0,2.03,.14,2.89,.41,.86,.28,1.59,.67,2.18,1.17,.59,.51,1.05,1.13,1.37,1.86,.32,.74,.48,1.56,.48,2.46,0,.78-.11,1.48-.33,2.09-.22,.61-.53,1.15-.92,1.62-.39,.47-.86,.87-1.4,1.2-.54,.33-1.14,.58-1.8,.76l5.03,7.05h-3.86Zm-1.07-14.89c-.68-.53-1.63-.79-2.86-.79h-4.78v6.28h4.81c1.17,0,2.11-.29,2.8-.86,.69-.57,1.04-1.34,1.04-2.3,0-1.03-.34-1.81-1.02-2.34Z"/>
        <path class="cls-2" d="M258.5,56.4h-3.46l-1.89-4.5h-8.81l-1.92,4.5h-3.35l8.2-18.77h3.03l8.2,18.77Zm-9.77-14.86l-3.19,7.45h6.42l-3.22-7.45Z"/>
        <path class="cls-2" d="M274.68,37.76h3.25v18.64h-2.74l-10.25-13.26v13.26h-3.25v-18.64h3.03l9.96,12.89v-12.89Z"/>
        <path class="cls-2" d="M300.67,50.78c-.48,1.17-1.15,2.2-2.02,3.07s-1.9,1.58-3.09,2.09c-1.19,.51-2.5,.77-3.94,.77s-2.75-.25-3.94-.76-2.21-1.19-3.06-2.06-1.52-1.89-2-3.06-.72-2.41-.72-3.73,.24-2.56,.72-3.73,1.15-2.2,2.02-3.07c.87-.88,1.9-1.57,3.09-2.09,1.19-.51,2.5-.77,3.94-.77s2.75,.25,3.94,.76c1.19,.51,2.21,1.19,3.06,2.06,.85,.87,1.52,1.89,2,3.06,.48,1.17,.72,2.41,.72,3.73s-.24,2.56-.72,3.73Zm-3.18-6.24c-.31-.81-.75-1.51-1.3-2.12s-1.23-1.08-2.01-1.44c-.78-.35-1.63-.53-2.56-.53s-1.77,.17-2.54,.52c-.77,.35-1.43,.82-1.98,1.41-.55,.59-.98,1.3-1.29,2.1-.31,.81-.47,1.66-.47,2.57s.16,1.76,.47,2.57,.75,1.51,1.3,2.12,1.23,1.08,2.01,1.44,1.63,.53,2.56,.53,1.77-.17,2.54-.52c.77-.35,1.43-.82,1.98-1.41,.55-.59,.98-1.3,1.29-2.1,.31-.81,.47-1.66,.47-2.57s-.16-1.76-.47-2.57Z"/>
        <path class="cls-2" d="M314.54,51.82h-.11l-5.83-8.73v13.31h-3.25v-18.64h3.49l5.67,8.81,5.67-8.81h3.49v18.64h-3.25v-13.36l-5.88,8.79Z"/>
        <path class="cls-2" d="M346.3,56.4h-3.46l-1.89-4.5h-8.81l-1.92,4.5h-3.35l8.2-18.77h3.03l8.2,18.77Zm-9.77-14.86l-3.19,7.45h6.42l-3.22-7.45Z"/>
        <path class="cls-2" d="M349.49,37.76h3.25v15.68h9.8v2.96h-13.04v-18.64Z"/>
        <path class="cls-2" d="M371.3,56.4h-3.3v-7.35l-7.4-11.29h3.86l5.22,8.25,5.27-8.25h3.75l-7.4,11.21v7.43Z"/>
      </g>
    </g>
  </g>
</svg>