<?xml version="1.0" encoding="UTF-8"?>
<svg id="Layer_2" data-name="Layer 2" xmlns="http://www.w3.org/2000/svg" xmlns:xlink="http://www.w3.org/1999/xlink" viewBox="0 0 500 96">
  <defs>
    <style>
      .cls-1 {
        fill: #fff;
        filter: url(#outer-glow-1);
      }

      .cls-2 {
        fill: #6032c2;
      }
    </style>
    <filter id="outer-glow-1" filterUnits="userSpaceOnUse">
      <feOffset dx="0" dy="0"/>
      <feGaussianBlur result="blur" stdDeviation="3"/>
      <feFlood flood-color="#6032c4" flood-opacity=".2"/>
      <feComposite in2="blur" operator="in"/>
      <feComposite in="SourceGraphic"/>
    </filter>
  </defs>
  <g id="Layer_1-2" data-name="Layer 1">
    <g>
      <rect class="cls-1" x="9.52" y="9.65" width="480.48" height="76.79" rx="10" ry="10"/>
      <g>
        <path class="cls-2" d="M153.26,38.14h3.25v18.64h-2.74l-10.25-13.26v13.26h-3.25v-18.64h3.03l9.96,12.89v-12.89Z"/>
        <path class="cls-2" d="M179.25,51.16c-.48,1.17-1.15,2.2-2.02,3.07s-1.9,1.58-3.09,2.09c-1.19,.51-2.5,.77-3.94,.77s-2.75-.25-3.94-.76-2.21-1.19-3.06-2.06-1.52-1.89-2-3.06-.72-2.41-.72-3.73,.24-2.56,.72-3.73,1.15-2.2,2.02-3.07c.87-.88,1.9-1.57,3.09-2.09,1.19-.51,2.5-.77,3.94-.77s2.75,.25,3.94,.76c1.19,.51,2.21,1.19,3.06,2.06,.85,.87,1.52,1.89,2,3.06,.48,1.17,.72,2.41,.72,3.73s-.24,2.56-.72,3.73Zm-3.18-6.24c-.31-.81-.75-1.51-1.3-2.12s-1.23-1.08-2.01-1.44c-.78-.35-1.63-.53-2.56-.53s-1.77,.17-2.54,.52c-.77,.35-1.43,.82-1.98,1.41-.55,.59-.98,1.3-1.29,2.1-.31,.81-.47,1.66-.47,2.57s.16,1.76,.47,2.57,.75,1.51,1.3,2.12,1.23,1.08,2.01,1.44,1.63,.53,2.56,.53,1.77-.17,2.54-.52c.77-.35,1.43-.82,1.98-1.41,.55-.59,.98-1.3,1.29-2.1,.31-.81,.47-1.66,.47-2.57s-.16-1.76-.47-2.57Z"/>
        <path class="cls-2" d="M195.89,56.77l-4.59-6.5h-4.11v6.5h-3.25v-18.64h8.31c1.06,0,2.03,.14,2.89,.41,.86,.28,1.59,.67,2.18,1.17,.59,.51,1.05,1.13,1.37,1.86,.32,.74,.48,1.56,.48,2.46,0,.78-.11,1.48-.33,2.09-.22,.61-.53,1.15-.92,1.62-.39,.47-.86,.87-1.4,1.2-.54,.33-1.14,.58-1.8,.76l5.03,7.05h-3.86Zm-1.07-14.89c-.68-.53-1.63-.79-2.86-.79h-4.78v6.28h4.81c1.17,0,2.11-.29,2.8-.86,.69-.57,1.04-1.34,1.04-2.3,0-1.03-.34-1.81-1.02-2.34Z"/>
        <path class="cls-2" d="M212.37,52.19h-.11l-5.83-8.73v13.31h-3.25v-18.64h3.49l5.67,8.81,5.67-8.81h3.49v18.64h-3.25v-13.36l-5.88,8.79Z"/>
        <path class="cls-2" d="M244.13,56.77h-3.46l-1.89-4.5h-8.81l-1.92,4.5h-3.35l8.2-18.77h3.03l8.2,18.77Zm-9.77-14.86l-3.19,7.45h6.42l-3.22-7.45Z"/>
        <path class="cls-2" d="M247.32,38.14h3.25v15.68h9.8v2.96h-13.04v-18.64Z"/>
        <path class="cls-2" d="M285.02,38.14h3.54l-7.75,18.77h-2.88l-7.75-18.77h3.62l5.62,14.32,5.59-14.32Z"/>
        <path class="cls-2" d="M295.19,38.14v18.64h-3.25v-18.64h3.25Z"/>
        <path class="cls-2" d="M303.12,43.97c.12,.27,.35,.51,.68,.75,.33,.23,.78,.44,1.36,.64,.58,.2,1.31,.4,2.2,.61,.98,.25,1.85,.52,2.6,.83,.76,.3,1.38,.67,1.88,1.1,.5,.44,.88,.94,1.13,1.52,.26,.58,.39,1.26,.39,2.04,0,.89-.16,1.68-.49,2.37s-.78,1.28-1.36,1.76c-.58,.48-1.28,.84-2.09,1.09-.82,.25-1.71,.37-2.69,.37-1.44,0-2.81-.24-4.13-.73-1.31-.49-2.53-1.24-3.65-2.25l1.97-2.34c.9,.78,1.82,1.38,2.74,1.8s1.97,.63,3.14,.63c1.01,0,1.81-.21,2.41-.64,.59-.43,.89-1,.89-1.73,0-.34-.06-.64-.17-.91s-.33-.51-.64-.73c-.31-.22-.74-.43-1.28-.63-.54-.19-1.25-.4-2.12-.61-1-.23-1.88-.49-2.66-.77-.77-.28-1.42-.64-1.95-1.06-.52-.43-.93-.94-1.2-1.54-.28-.6-.41-1.34-.41-2.21,0-.82,.16-1.56,.48-2.22s.75-1.24,1.31-1.72c.55-.48,1.22-.85,2-1.1s1.63-.39,2.55-.39c1.37,0,2.6,.2,3.69,.6,1.09,.4,2.12,.98,3.07,1.74l-1.76,2.48c-.85-.62-1.7-1.1-2.53-1.42-.83-.33-1.68-.49-2.53-.49-.96,0-1.7,.22-2.24,.65-.53,.44-.8,.96-.8,1.58,0,.37,.06,.69,.19,.96Z"/>
        <path class="cls-2" d="M320.66,38.14v18.64h-3.25v-18.64h3.25Z"/>
        <path class="cls-2" d="M343.61,51.16c-.48,1.17-1.15,2.2-2.02,3.07s-1.9,1.58-3.09,2.09c-1.19,.51-2.5,.77-3.94,.77s-2.75-.25-3.94-.76-2.21-1.19-3.06-2.06-1.52-1.89-2-3.06-.72-2.41-.72-3.73,.24-2.56,.72-3.73,1.15-2.2,2.02-3.07c.87-.88,1.9-1.57,3.09-2.09,1.19-.51,2.5-.77,3.94-.77s2.75,.25,3.94,.76c1.19,.51,2.21,1.19,3.06,2.06,.85,.87,1.52,1.89,2,3.06,.48,1.17,.72,2.41,.72,3.73s-.24,2.56-.72,3.73Zm-3.18-6.24c-.31-.81-.75-1.51-1.3-2.12s-1.23-1.08-2.01-1.44c-.78-.35-1.63-.53-2.56-.53s-1.77,.17-2.54,.52c-.77,.35-1.43,.82-1.98,1.41-.55,.59-.98,1.3-1.29,2.1-.31,.81-.47,1.66-.47,2.57s.16,1.76,.47,2.57,.75,1.51,1.3,2.12,1.23,1.08,2.01,1.44,1.63,.53,2.56,.53,1.77-.17,2.54-.52c.77-.35,1.43-.82,1.98-1.41,.55-.59,.98-1.3,1.29-2.1,.31-.81,.47-1.66,.47-2.57s-.16-1.76-.47-2.57Z"/>
        <path class="cls-2" d="M361.29,38.14h3.25v18.64h-2.74l-10.25-13.26v13.26h-3.25v-18.64h3.03l9.96,12.89v-12.89Z"/>
      </g>
    </g>
  </g>
</svg>