<?xml version="1.0" encoding="UTF-8"?>
<svg id="Layer_2" data-name="Layer 2" xmlns="http://www.w3.org/2000/svg" xmlns:xlink="http://www.w3.org/1999/xlink" viewBox="0 0 500 96">
  <defs>
    <style>
      .cls-1 {
        fill: #fff;
        filter: url(#outer-glow-1);
      }

      .cls-2 {
        fill: #6032c2;
      }
    </style>
    <filter id="outer-glow-1" filterUnits="userSpaceOnUse">
      <feOffset dx="0" dy="0"/>
      <feGaussianBlur result="blur" stdDeviation="3"/>
      <feFlood flood-color="#6032c4" flood-opacity=".2"/>
      <feComposite in2="blur" operator="in"/>
      <feComposite in="SourceGraphic"/>
    </filter>
  </defs>
  <g id="Layer_1-2" data-name="Layer 1">
    <g>
      <rect class="cls-1" x="9.52" y="9.56" width="480.48" height="76.79" rx="10" ry="10"/>
      <g>
        <path class="cls-2" d="M176.81,56.69h-3.3v-15.6h-5.91v-3.04h15.12v3.04h-5.91v15.6Z"/>
        <path class="cls-2" d="M198.14,56.69l-4.59-6.5h-4.11v6.5h-3.25v-18.64h8.31c1.06,0,2.03,.14,2.89,.41,.86,.28,1.59,.67,2.18,1.17,.59,.51,1.05,1.13,1.37,1.86,.32,.74,.48,1.56,.48,2.46,0,.78-.11,1.48-.33,2.09-.22,.61-.53,1.15-.92,1.62-.39,.47-.86,.87-1.4,1.2-.54,.33-1.14,.58-1.8,.76l5.03,7.05h-3.86Zm-1.07-14.89c-.68-.53-1.63-.79-2.86-.79h-4.78v6.28h4.81c1.17,0,2.11-.29,2.8-.86,.69-.57,1.04-1.34,1.04-2.3,0-1.03-.34-1.81-1.02-2.34Z"/>
        <path class="cls-2" d="M208.86,38.05v18.64h-3.25v-18.64h3.25Z"/>
        <path class="cls-2" d="M221.75,56.69h-3.3v-15.6h-5.91v-3.04h15.12v3.04h-5.91v15.6Z"/>
        <path class="cls-2" d="M246.56,56.69h-3.46l-1.89-4.5h-8.81l-1.92,4.5h-3.35l8.2-18.77h3.03l8.2,18.77Zm-9.77-14.86l-3.19,7.46h6.42l-3.22-7.46Z"/>
        <path class="cls-2" d="M262.75,38.05h3.25v18.64h-2.74l-10.25-13.26v13.26h-3.25v-18.64h3.03l9.96,12.89v-12.89Z"/>
        <path class="cls-2" d="M288.73,51.07c-.48,1.17-1.15,2.2-2.02,3.08-.87,.88-1.9,1.58-3.09,2.09-1.19,.51-2.5,.77-3.94,.77s-2.75-.25-3.94-.76-2.21-1.19-3.06-2.06c-.85-.87-1.52-1.89-2-3.06-.48-1.17-.72-2.41-.72-3.73s.24-2.56,.72-3.73c.48-1.17,1.15-2.2,2.02-3.07,.87-.88,1.9-1.58,3.09-2.09s2.5-.77,3.94-.77,2.75,.25,3.94,.76c1.19,.51,2.21,1.19,3.06,2.06,.85,.87,1.52,1.89,2,3.06,.48,1.17,.72,2.41,.72,3.73s-.24,2.56-.72,3.73Zm-3.18-6.24c-.31-.81-.75-1.51-1.3-2.12s-1.23-1.08-2.01-1.44c-.78-.35-1.63-.53-2.56-.53s-1.77,.17-2.54,.52c-.77,.35-1.43,.82-1.98,1.41-.55,.59-.98,1.3-1.29,2.1s-.47,1.66-.47,2.57,.16,1.76,.47,2.57,.75,1.51,1.3,2.12,1.23,1.08,2.01,1.44c.78,.35,1.63,.53,2.56,.53s1.77-.17,2.54-.52c.77-.35,1.43-.82,1.98-1.41,.55-.59,.98-1.29,1.29-2.1,.31-.81,.47-1.66,.47-2.57s-.16-1.76-.47-2.57Z"/>
        <path class="cls-2" d="M307.26,47.08c-.39,.8-.92,1.46-1.6,2-.68,.53-1.47,.94-2.37,1.21-.91,.28-1.88,.41-2.91,.41h-3.71v5.99h-3.25v-18.64h7.35c1.08,0,2.06,.15,2.94,.44s1.62,.71,2.24,1.26c.61,.55,1.08,1.21,1.41,1.97,.33,.76,.49,1.62,.49,2.58,0,1.05-.2,1.97-.59,2.77Zm-3.84-5.23c-.73-.56-1.71-.84-2.94-.84h-3.82v6.74h3.82c1.25,0,2.23-.31,2.95-.92,.72-.61,1.08-1.43,1.08-2.45,0-1.12-.37-1.96-1.1-2.53Z"/>
        <path class="cls-2" d="M314.63,38.05v18.64h-3.25v-18.64h3.25Z"/>
        <path class="cls-2" d="M337.48,56.69h-3.46l-1.89-4.5h-8.81l-1.92,4.5h-3.35l8.2-18.77h3.03l8.2,18.77Zm-9.77-14.86l-3.19,7.46h6.42l-3.22-7.46Z"/>
      </g>
    </g>
  </g>
</svg>