<?xml version="1.0" encoding="UTF-8"?>
<svg id="Layer_2" data-name="Layer 2" xmlns="http://www.w3.org/2000/svg" xmlns:xlink="http://www.w3.org/1999/xlink" viewBox="0 0 500 96">
  <defs>
    <style>
      .cls-1 {
        fill: #fff;
        filter: url(#outer-glow-1);
      }

      .cls-2 {
        fill: #6032c2;
      }
    </style>
    <filter id="outer-glow-1" filterUnits="userSpaceOnUse">
      <feOffset dx="0" dy="0"/>
      <feGaussianBlur result="blur" stdDeviation="3"/>
      <feFlood flood-color="#6032c4" flood-opacity=".2"/>
      <feComposite in2="blur" operator="in"/>
      <feComposite in="SourceGraphic"/>
    </filter>
  </defs>
  <g id="Layer_1-2" data-name="Layer 1">
    <g>
      <rect class="cls-1" x="9.52" y="9.57" width="480.48" height="76.79" rx="10" ry="10"/>
      <g>
        <path class="cls-2" d="M142.71,56.69l-1.7-4.18h-7.88l-1.7,4.18h-4.18l7.99-18.77h3.78l7.99,18.77h-4.29Zm-5.64-13.84l-2.48,6.04h4.95l-2.48-6.04Z"/>
        <path class="cls-2" d="M164.75,55.07c-.52,.41-1.08,.76-1.69,1.05s-1.28,.51-2.01,.67c-.73,.15-1.54,.23-2.45,.23-1.37,0-2.64-.25-3.81-.75s-2.18-1.18-3.04-2.04c-.85-.86-1.52-1.88-2-3.05-.48-1.17-.72-2.42-.72-3.75v-.05c0-1.33,.24-2.58,.72-3.74,.48-1.16,1.14-2.18,2-3.06,.85-.88,1.87-1.57,3.06-2.08,1.19-.51,2.5-.76,3.94-.76,.87,0,1.66,.07,2.38,.21,.72,.14,1.37,.34,1.96,.59,.59,.25,1.13,.55,1.62,.91,.5,.36,.96,.75,1.38,1.17l-2.61,3.01c-.73-.66-1.47-1.17-2.22-1.54-.75-.37-1.6-.56-2.54-.56-.78,0-1.5,.15-2.17,.45s-1.24,.72-1.72,1.25c-.48,.53-.85,1.15-1.12,1.85-.27,.7-.4,1.45-.4,2.25v.05c0,.8,.13,1.55,.4,2.26,.27,.71,.63,1.33,1.1,1.86,.47,.53,1.04,.95,1.7,1.26s1.4,.47,2.2,.47c1.06,0,1.97-.19,2.7-.58,.74-.39,1.47-.92,2.2-1.6l2.61,2.64c-.48,.51-.98,.98-1.49,1.38Z"/>
        <path class="cls-2" d="M181.18,56.69v-7.48h-7.56v7.48h-4.1v-18.64h4.1v7.38h7.56v-7.38h4.1v18.64h-4.1Z"/>
        <path class="cls-2" d="M201.06,56.69l-3.99-5.96h-3.22v5.96h-4.1v-18.64h8.52c2.22,0,3.94,.54,5.18,1.62,1.23,1.08,1.85,2.59,1.85,4.53v.05c0,1.51-.37,2.74-1.1,3.69s-1.7,1.65-2.89,2.09l4.55,6.66h-4.79Zm.08-12.27c0-.89-.28-1.55-.85-2-.57-.44-1.36-.67-2.37-.67h-4.07v5.35h4.15c1.01,0,1.79-.24,2.33-.72,.54-.48,.81-1.12,.81-1.92v-.05Z"/>
        <path class="cls-2" d="M227.23,51.11c-.5,1.16-1.18,2.18-2.06,3.06-.88,.88-1.93,1.57-3.14,2.08-1.22,.51-2.54,.76-3.98,.76s-2.76-.25-3.97-.76c-1.21-.51-2.25-1.19-3.13-2.05-.88-.86-1.56-1.87-2.05-3.03-.49-1.16-.73-2.41-.73-3.74v-.05c0-1.33,.25-2.58,.75-3.74,.5-1.16,1.19-2.18,2.06-3.06,.88-.88,1.93-1.57,3.14-2.08s2.54-.76,3.98-.76,2.76,.25,3.97,.76,2.25,1.19,3.13,2.05c.88,.86,1.56,1.87,2.05,3.04,.49,1.16,.73,2.41,.73,3.74v.05c0,1.33-.25,2.58-.75,3.74Zm-3.54-3.74c0-.8-.14-1.55-.41-2.26-.28-.71-.67-1.33-1.17-1.86-.51-.53-1.1-.95-1.8-1.26-.69-.31-1.45-.47-2.26-.47s-1.59,.15-2.28,.45c-.68,.3-1.27,.72-1.76,1.25s-.87,1.15-1.14,1.85c-.28,.7-.41,1.45-.41,2.25v.05c0,.8,.14,1.55,.41,2.26,.27,.71,.67,1.33,1.17,1.86,.51,.53,1.1,.95,1.78,1.26,.68,.31,1.44,.47,2.28,.47s1.57-.15,2.26-.45,1.28-.72,1.77-1.25c.49-.53,.87-1.15,1.14-1.85,.27-.7,.41-1.45,.41-2.25v-.05Z"/>
        <path class="cls-2" d="M246.22,56.69v-12.17l-5.24,7.96h-.11l-5.19-7.88v12.09h-4.05v-18.64h4.42l4.9,7.88,4.9-7.88h4.42v18.64h-4.05Z"/>
        <path class="cls-2" d="M268.6,56.69l-1.7-4.18h-7.88l-1.7,4.18h-4.18l7.99-18.77h3.78l7.99,18.77h-4.29Zm-5.64-13.84l-2.48,6.04h4.95l-2.48-6.04Z"/>
        <path class="cls-2" d="M284.21,41.83v14.86h-4.1v-14.86h-5.67v-3.78h15.44v3.78h-5.67Z"/>
        <path class="cls-2" d="M311.25,51.11c-.5,1.16-1.18,2.18-2.06,3.06-.88,.88-1.93,1.57-3.14,2.08-1.22,.51-2.54,.76-3.98,.76s-2.76-.25-3.97-.76c-1.21-.51-2.25-1.19-3.13-2.05-.88-.86-1.56-1.87-2.05-3.03-.49-1.16-.73-2.41-.73-3.74v-.05c0-1.33,.25-2.58,.75-3.74,.5-1.16,1.19-2.18,2.06-3.06,.88-.88,1.93-1.57,3.14-2.08s2.54-.76,3.98-.76,2.76,.25,3.97,.76,2.25,1.19,3.13,2.05c.88,.86,1.56,1.87,2.05,3.04,.49,1.16,.73,2.41,.73,3.74v.05c0,1.33-.25,2.58-.75,3.74Zm-3.54-3.74c0-.8-.14-1.55-.41-2.26-.28-.71-.67-1.33-1.17-1.86-.51-.53-1.1-.95-1.8-1.26-.69-.31-1.45-.47-2.26-.47s-1.59,.15-2.28,.45c-.68,.3-1.27,.72-1.76,1.25s-.87,1.15-1.14,1.85c-.28,.7-.41,1.45-.41,2.25v.05c0,.8,.14,1.55,.41,2.26,.27,.71,.67,1.33,1.17,1.86,.51,.53,1.1,.95,1.78,1.26,.68,.31,1.44,.47,2.28,.47s1.57-.15,2.26-.45,1.28-.72,1.77-1.25c.49-.53,.87-1.15,1.14-1.85,.27-.7,.41-1.45,.41-2.25v-.05Z"/>
        <path class="cls-2" d="M329.81,47.4c-.39,.82-.93,1.5-1.61,2.05-.68,.55-1.48,.96-2.4,1.24s-1.89,.41-2.94,.41h-3.11v5.59h-4.1v-18.64h7.61c1.12,0,2.12,.16,3,.47,.88,.31,1.62,.75,2.24,1.32s1.08,1.25,1.41,2.04c.33,.79,.49,1.66,.49,2.62v.05c0,1.08-.2,2.03-.59,2.85Zm-3.57-2.82c0-.92-.3-1.62-.89-2.1-.59-.48-1.41-.72-2.44-.72h-3.17v5.7h3.25c1.03,0,1.83-.27,2.4-.81,.57-.54,.85-1.21,.85-2.01v-.05Z"/>
        <path class="cls-2" d="M346.4,53.64c-.33,.72-.8,1.32-1.4,1.81s-1.32,.86-2.15,1.12c-.83,.26-1.75,.39-2.76,.39-1.42,0-2.81-.24-4.18-.73-1.37-.49-2.61-1.24-3.73-2.25l2.42-2.9c.85,.69,1.73,1.24,2.62,1.65,.9,.41,1.88,.61,2.94,.61,.85,0,1.51-.16,1.98-.47s.71-.74,.71-1.29v-.05c0-.27-.05-.5-.15-.71-.1-.2-.28-.39-.56-.57-.28-.18-.66-.35-1.15-.53s-1.13-.36-1.91-.56c-.94-.23-1.8-.49-2.56-.77-.77-.28-1.41-.63-1.95-1.05-.53-.42-.95-.94-1.24-1.56-.29-.62-.44-1.39-.44-2.32v-.05c0-.85,.16-1.62,.48-2.3s.76-1.27,1.34-1.77c.57-.5,1.26-.88,2.05-1.14,.79-.27,1.67-.4,2.63-.4,1.37,0,2.62,.2,3.77,.61,1.14,.41,2.2,.99,3.15,1.76l-2.13,3.09c-.83-.57-1.65-1.02-2.45-1.34s-1.6-.49-2.4-.49-1.4,.16-1.8,.47c-.4,.31-.6,.7-.6,1.16v.05c0,.3,.06,.56,.17,.79s.32,.42,.63,.6c.3,.18,.72,.35,1.24,.51,.52,.16,1.19,.35,1.99,.56,.94,.25,1.78,.53,2.52,.84,.74,.31,1.36,.68,1.87,1.12,.51,.44,.89,.95,1.15,1.53s.39,1.29,.39,2.1v.05c0,.92-.17,1.74-.5,2.46Z"/>
        <path class="cls-2" d="M350.65,56.69v-18.64h4.1v18.64h-4.1Z"/>
        <path class="cls-2" d="M373.28,56.69l-1.7-4.18h-7.88l-1.7,4.18h-4.18l7.99-18.77h3.78l7.99,18.77h-4.29Zm-5.64-13.84l-2.48,6.04h4.95l-2.48-6.04Z"/>
      </g>
    </g>
  </g>
</svg>