<?xml version="1.0" encoding="UTF-8"?>
<svg id="Layer_2" data-name="Layer 2" xmlns="http://www.w3.org/2000/svg" xmlns:xlink="http://www.w3.org/1999/xlink" viewBox="0 0 500 96">
  <defs>
    <style>
      .cls-1 {
        fill: #fff;
        filter: url(#outer-glow-1);
      }

      .cls-2 {
        fill: #6032c2;
      }
    </style>
    <filter id="outer-glow-1" filterUnits="userSpaceOnUse">
      <feOffset dx="0" dy="0"/>
      <feGaussianBlur result="blur" stdDeviation="3"/>
      <feFlood flood-color="#6032c4" flood-opacity=".2"/>
      <feComposite in2="blur" operator="in"/>
      <feComposite in="SourceGraphic"/>
    </filter>
  </defs>
  <g id="Layer_1-2" data-name="Layer 1">
    <g>
      <rect class="cls-1" x="9.52" y="9.61" width="480.48" height="76.79" rx="10" ry="10"/>
      <g>
        <path class="cls-2" d="M142.35,51.09c-.48,1.14-1.16,2.12-2.04,2.96s-1.93,1.49-3.14,1.97c-1.22,.48-2.55,.72-4.01,.72h-7.27v-18.64h7.27c1.46,0,2.79,.24,4.01,.71,1.22,.47,2.26,1.12,3.14,1.96s1.56,1.81,2.04,2.94c.48,1.13,.72,2.35,.72,3.66v.05c0,1.31-.24,2.54-.72,3.67Zm-3.57-3.67c0-.82-.14-1.57-.41-2.26-.28-.69-.66-1.29-1.15-1.78-.49-.5-1.08-.88-1.77-1.16-.69-.28-1.46-.41-2.29-.41h-3.17v11.23h3.17c.83,0,1.6-.13,2.29-.4,.69-.27,1.28-.65,1.77-1.15,.49-.5,.87-1.08,1.15-1.76,.27-.67,.41-1.43,.41-2.26v-.05Z"/>
        <path class="cls-2" d="M146.72,56.73v-18.64h14.03v3.65h-9.98v3.78h8.79v3.65h-8.79v3.91h10.12v3.65h-14.16Z"/>
        <path class="cls-2" d="M179.93,52.31c-.38,1.05-.93,1.92-1.64,2.62-.71,.7-1.57,1.22-2.58,1.57-1.01,.35-2.14,.52-3.38,.52-2.5,0-4.47-.69-5.91-2.08-1.44-1.38-2.16-3.45-2.16-6.2v-10.65h4.1v10.54c0,1.53,.35,2.68,1.06,3.45,.71,.77,1.69,1.16,2.96,1.16s2.24-.37,2.96-1.12c.71-.75,1.06-1.86,1.06-3.35v-10.68h4.1v10.52c0,1.42-.19,2.65-.57,3.7Z"/>
        <path class="cls-2" d="M193.12,41.88v14.86h-4.1v-14.86h-5.67v-3.78h15.44v3.78h-5.67Z"/>
        <path class="cls-2" d="M201.93,56.73v-18.64h14.03v3.65h-9.98v3.78h8.79v3.65h-8.79v3.91h10.12v3.65h-14.16Z"/>
        <path class="cls-2" d="M231.08,56.73l-3.99-5.96h-3.22v5.96h-4.1v-18.64h8.52c2.22,0,3.94,.54,5.18,1.62,1.23,1.08,1.85,2.59,1.85,4.53v.05c0,1.51-.37,2.74-1.1,3.69s-1.7,1.65-2.89,2.09l4.55,6.66h-4.79Zm.08-12.27c0-.89-.28-1.55-.85-2-.57-.44-1.36-.67-2.37-.67h-4.07v5.35h4.15c1.01,0,1.79-.24,2.33-.72,.54-.48,.81-1.12,.81-1.92v-.05Z"/>
        <path class="cls-2" d="M252.88,56.73l-1.7-4.18h-7.88l-1.7,4.18h-4.18l7.99-18.77h3.78l7.99,18.77h-4.29Zm-5.64-13.84l-2.48,6.04h4.95l-2.48-6.04Z"/>
        <path class="cls-2" d="M273.12,56.73l-9.02-11.85v11.85h-4.05v-18.64h3.78l8.73,11.47v-11.47h4.05v18.64h-3.49Z"/>
        <path class="cls-2" d="M299.31,51.16c-.5,1.16-1.18,2.18-2.06,3.06-.88,.88-1.93,1.57-3.14,2.08-1.22,.51-2.54,.76-3.98,.76s-2.76-.25-3.97-.76c-1.21-.51-2.25-1.19-3.13-2.05-.88-.86-1.56-1.87-2.05-3.04-.49-1.16-.73-2.41-.73-3.74v-.05c0-1.33,.25-2.58,.75-3.74,.5-1.16,1.19-2.18,2.06-3.06s1.93-1.57,3.14-2.08,2.54-.76,3.98-.76,2.76,.25,3.97,.76,2.25,1.19,3.13,2.05c.88,.86,1.56,1.87,2.05,3.04,.49,1.16,.73,2.41,.73,3.74v.05c0,1.33-.25,2.58-.75,3.74Zm-3.54-3.74c0-.8-.14-1.55-.41-2.26-.28-.71-.67-1.33-1.17-1.86-.51-.53-1.1-.95-1.8-1.26-.69-.31-1.45-.47-2.26-.47s-1.59,.15-2.28,.45c-.68,.3-1.27,.72-1.76,1.25s-.87,1.15-1.14,1.85c-.28,.7-.41,1.45-.41,2.25v.05c0,.8,.14,1.55,.41,2.26,.27,.71,.67,1.33,1.17,1.86s1.1,.95,1.78,1.26c.68,.31,1.44,.47,2.28,.47s1.57-.15,2.26-.45,1.28-.72,1.77-1.25c.49-.53,.87-1.15,1.14-1.85,.27-.7,.41-1.45,.41-2.25v-.05Z"/>
        <path class="cls-2" d="M318.29,56.73v-12.17l-5.24,7.96h-.11l-5.19-7.88v12.09h-4.05v-18.64h4.42l4.9,7.88,4.9-7.88h4.42v18.64h-4.05Z"/>
        <path class="cls-2" d="M340.68,56.73l-1.7-4.18h-7.88l-1.7,4.18h-4.18l7.99-18.77h3.78l7.99,18.77h-4.29Zm-5.64-13.84l-2.48,6.04h4.95l-2.48-6.04Z"/>
        <path class="cls-2" d="M347.85,56.73v-18.64h4.1v14.94h9.29v3.7h-13.39Z"/>
        <path class="cls-2" d="M373.67,49.31v7.43h-4.1v-7.35l-7.16-11.29h4.79l4.45,7.48,4.53-7.48h4.66l-7.16,11.21Z"/>
      </g>
    </g>
  </g>
</svg>