<?xml version="1.0" encoding="UTF-8"?>
<svg id="Layer_2" data-name="Layer 2" xmlns="http://www.w3.org/2000/svg" xmlns:xlink="http://www.w3.org/1999/xlink" viewBox="0 0 500 96">
  <defs>
    <style>
      .cls-1 {
        fill: #fff;
        filter: url(#outer-glow-1);
      }

      .cls-2 {
        fill: #6032c2;
      }
    </style>
    <filter id="outer-glow-1" filterUnits="userSpaceOnUse">
      <feOffset dx="0" dy="0"/>
      <feGaussianBlur result="blur" stdDeviation="3"/>
      <feFlood flood-color="#6032c4" flood-opacity=".2"/>
      <feComposite in2="blur" operator="in"/>
      <feComposite in="SourceGraphic"/>
    </filter>
  </defs>
  <g id="Layer_1-2" data-name="Layer 1">
    <g>
      <rect class="cls-1" x="9.52" y="9.23" width="480.48" height="76.79" rx="10" ry="10"/>
      <g>
        <path class="cls-2" d="M174.12,47.07c-.39,.82-.93,1.5-1.61,2.05-.68,.55-1.48,.96-2.4,1.24-.91,.28-1.89,.41-2.94,.41h-3.11v5.59h-4.1v-18.63h7.61c1.12,0,2.12,.16,3,.46,.88,.31,1.62,.75,2.24,1.32s1.08,1.25,1.41,2.04c.33,.79,.49,1.66,.49,2.62v.05c0,1.08-.2,2.03-.59,2.85Zm-3.57-2.82c0-.92-.3-1.62-.89-2.1s-1.41-.72-2.44-.72h-3.17v5.7h3.25c1.03,0,1.83-.27,2.4-.81,.57-.54,.85-1.21,.85-2.01v-.05Z"/>
        <path class="cls-2" d="M189.06,56.36l-3.99-5.96h-3.22v5.96h-4.1v-18.63h8.52c2.22,0,3.94,.54,5.18,1.62,1.23,1.08,1.85,2.59,1.85,4.53v.05c0,1.51-.37,2.74-1.1,3.69-.74,.95-1.7,1.65-2.89,2.09l4.55,6.66h-4.79Zm.08-12.27c0-.89-.28-1.55-.85-2-.57-.44-1.36-.67-2.37-.67h-4.07v5.35h4.15c1.01,0,1.79-.24,2.33-.72,.54-.48,.81-1.12,.81-1.92v-.05Z"/>
        <path class="cls-2" d="M215.23,50.78c-.5,1.16-1.18,2.18-2.06,3.06-.88,.88-1.93,1.57-3.14,2.08-1.22,.51-2.54,.76-3.98,.76s-2.76-.25-3.97-.76c-1.21-.51-2.25-1.19-3.13-2.05-.88-.86-1.56-1.87-2.05-3.04-.49-1.16-.73-2.41-.73-3.74v-.05c0-1.33,.25-2.58,.75-3.74s1.19-2.18,2.06-3.06,1.93-1.57,3.14-2.08,2.54-.76,3.98-.76,2.76,.25,3.97,.76,2.25,1.19,3.13,2.05c.88,.86,1.56,1.87,2.05,3.04,.49,1.16,.73,2.41,.73,3.74v.05c0,1.33-.25,2.58-.75,3.74Zm-3.54-3.74c0-.8-.14-1.55-.41-2.26-.28-.71-.67-1.33-1.17-1.86-.51-.53-1.1-.95-1.8-1.27-.69-.31-1.45-.46-2.26-.46s-1.59,.15-2.28,.45c-.68,.3-1.27,.72-1.76,1.25-.49,.53-.87,1.15-1.14,1.85-.28,.7-.41,1.45-.41,2.25v.05c0,.8,.14,1.55,.41,2.26,.27,.71,.67,1.33,1.17,1.86,.51,.53,1.1,.96,1.78,1.27,.68,.31,1.44,.46,2.28,.46s1.57-.15,2.26-.45,1.28-.72,1.77-1.25c.49-.53,.87-1.15,1.14-1.85,.27-.7,.41-1.45,.41-2.25v-.05Z"/>
        <path class="cls-2" d="M228.06,41.5v14.86h-4.1v-14.86h-5.67v-3.78h15.44v3.78h-5.67Z"/>
        <path class="cls-2" d="M250.74,56.36l-1.7-4.18h-7.88l-1.7,4.18h-4.18l7.99-18.77h3.78l7.99,18.77h-4.29Zm-5.64-13.84l-2.48,6.04h4.95l-2.48-6.04Z"/>
        <path class="cls-2" d="M270.97,56.36l-9.02-11.85v11.85h-4.05v-18.63h3.78l8.73,11.47v-11.47h4.05v18.63h-3.49Z"/>
        <path class="cls-2" d="M297.17,50.78c-.5,1.16-1.18,2.18-2.06,3.06-.88,.88-1.93,1.57-3.14,2.08-1.22,.51-2.54,.76-3.98,.76s-2.76-.25-3.97-.76c-1.21-.51-2.25-1.19-3.13-2.05-.88-.86-1.56-1.87-2.05-3.04-.49-1.16-.73-2.41-.73-3.74v-.05c0-1.33,.25-2.58,.75-3.74s1.19-2.18,2.06-3.06,1.93-1.57,3.14-2.08,2.54-.76,3.98-.76,2.76,.25,3.97,.76,2.25,1.19,3.13,2.05c.88,.86,1.56,1.87,2.05,3.04,.49,1.16,.73,2.41,.73,3.74v.05c0,1.33-.25,2.58-.75,3.74Zm-3.54-3.74c0-.8-.14-1.55-.41-2.26-.28-.71-.67-1.33-1.17-1.86-.51-.53-1.1-.95-1.8-1.27-.69-.31-1.45-.46-2.26-.46s-1.59,.15-2.28,.45c-.68,.3-1.27,.72-1.76,1.25-.49,.53-.87,1.15-1.14,1.85-.28,.7-.41,1.45-.41,2.25v.05c0,.8,.14,1.55,.41,2.26,.27,.71,.67,1.33,1.17,1.86,.51,.53,1.1,.96,1.78,1.27,.68,.31,1.44,.46,2.28,.46s1.57-.15,2.26-.45,1.28-.72,1.77-1.25c.49-.53,.87-1.15,1.14-1.85,.27-.7,.41-1.45,.41-2.25v-.05Z"/>
        <path class="cls-2" d="M315.73,47.07c-.39,.82-.93,1.5-1.61,2.05-.68,.55-1.48,.96-2.4,1.24-.91,.28-1.89,.41-2.94,.41h-3.11v5.59h-4.1v-18.63h7.61c1.12,0,2.12,.16,3,.46,.88,.31,1.62,.75,2.24,1.32s1.08,1.25,1.41,2.04c.33,.79,.49,1.66,.49,2.62v.05c0,1.08-.2,2.03-.59,2.85Zm-3.57-2.82c0-.92-.3-1.62-.89-2.1s-1.41-.72-2.44-.72h-3.17v5.7h3.25c1.03,0,1.83-.27,2.4-.81,.57-.54,.85-1.21,.85-2.01v-.05Z"/>
        <path class="cls-2" d="M319.53,56.36v-18.63h4.1v18.63h-4.1Z"/>
        <path class="cls-2" d="M342.16,56.36l-1.7-4.18h-7.88l-1.7,4.18h-4.18l7.99-18.77h3.78l7.99,18.77h-4.29Zm-5.64-13.84l-2.48,6.04h4.95l-2.48-6.04Z"/>
      </g>
    </g>
  </g>
</svg>