<?xml version="1.0" encoding="UTF-8"?>
<svg id="Layer_2" data-name="Layer 2" xmlns="http://www.w3.org/2000/svg" viewBox="0 0 165.16 19.63">
  <defs>
    <style>
      .cls-1 {
        fill: #6032c2;
      }
    </style>
  </defs>
  <g id="Layer_1-2" data-name="Layer 1">
    <g>
      <path class="cls-1" d="M15.85,.41h2.29L10.02,19.44h-1.89L0,.41H2.38l6.72,16.28L15.85,.41Z"/>
      <path class="cls-1" d="M21.44,15.11c.29,.58,.66,1.08,1.11,1.49,.45,.4,.95,.71,1.51,.92,.56,.21,1.14,.31,1.75,.31,.97,0,1.8-.18,2.5-.54s1.33-.84,1.9-1.43l1.3,1.16c-.7,.79-1.5,1.43-2.4,1.9-.9,.48-2.02,.72-3.35,.72-.95,0-1.85-.18-2.7-.53-.85-.35-1.59-.85-2.22-1.49-.63-.64-1.14-1.41-1.51-2.31-.37-.9-.56-1.89-.56-2.97,0-1.01,.17-1.96,.5-2.85,.33-.89,.8-1.66,1.39-2.32,.59-.66,1.3-1.17,2.12-1.55s1.71-.57,2.69-.57c1.03,0,1.94,.19,2.75,.58,.81,.39,1.49,.91,2.05,1.58,.56,.67,.98,1.45,1.27,2.35,.29,.9,.43,1.86,.43,2.89v.3c0,.11,0,.22-.03,.35h-11.04c.07,.76,.25,1.43,.54,2.01Zm8.4-3.55c-.05-.63-.18-1.23-.39-1.81s-.49-1.08-.86-1.51c-.37-.43-.81-.78-1.34-1.04-.53-.26-1.14-.39-1.84-.39-.61,0-1.17,.12-1.69,.36-.52,.24-.98,.58-1.37,1-.39,.42-.72,.92-.97,1.5-.25,.58-.41,1.21-.48,1.89h8.94Z"/>
      <path class="cls-1" d="M37.69,19.3h-2.08V5.35h2.08v3.65c.25-.58,.57-1.11,.95-1.59,.38-.49,.81-.9,1.3-1.25,.49-.35,1.02-.62,1.59-.8,.58-.18,1.2-.26,1.86-.24v2.24h-.16c-.76,0-1.47,.13-2.15,.41-.68,.27-1.26,.67-1.77,1.21s-.9,1.21-1.19,2.01c-.29,.8-.43,1.72-.43,2.77v5.56Z"/>
      <path class="cls-1" d="M55.74,17.16c-.26,.51-.61,.95-1.05,1.31-.44,.36-.96,.63-1.57,.82-.6,.19-1.26,.28-1.96,.28-1.01,0-2.02-.18-3.05-.55-1.03-.37-1.94-.87-2.73-1.5l1.05-1.48c.76,.58,1.54,1.02,2.36,1.32,.82,.31,1.64,.46,2.47,.46s1.54-.2,2.08-.59c.54-.4,.81-.94,.81-1.62v-.05c0-.34-.09-.64-.28-.89s-.45-.47-.77-.66c-.32-.19-.7-.35-1.12-.5-.42-.14-.86-.28-1.31-.41-.54-.16-1.08-.34-1.63-.53-.55-.19-1.04-.43-1.48-.72-.44-.29-.8-.65-1.08-1.08-.28-.43-.42-.97-.42-1.62v-.05c0-.59,.12-1.14,.35-1.63,.23-.5,.56-.92,.99-1.27,.42-.35,.93-.62,1.51-.81,.58-.19,1.22-.28,1.9-.28,.86,0,1.74,.14,2.62,.42,.88,.28,1.68,.65,2.4,1.12l-.94,1.57c-.65-.41-1.33-.74-2.04-.99-.71-.24-1.41-.36-2.09-.36-.83,0-1.49,.19-1.97,.58-.49,.39-.73,.87-.73,1.44v.05c0,.32,.1,.61,.3,.85s.46,.46,.8,.63c.33,.18,.72,.34,1.15,.49,.43,.14,.88,.29,1.35,.43,.54,.16,1.08,.34,1.61,.54,.53,.2,1.01,.45,1.44,.76,.43,.31,.78,.67,1.04,1.11,.26,.43,.39,.96,.39,1.59v.05c0,.67-.13,1.26-.39,1.77Z"/>
      <path class="cls-1" d="M60.05,2.29V0h2.38V2.29h-2.38Zm.14,17.01V5.35h2.08v13.96h-2.08Z"/>
      <path class="cls-1" d="M80.23,15.13c-.37,.89-.88,1.67-1.53,2.33s-1.42,1.19-2.32,1.58c-.9,.39-1.87,.58-2.92,.58s-2.01-.19-2.89-.58c-.88-.39-1.65-.91-2.3-1.57-.65-.66-1.15-1.43-1.51-2.31-.36-.88-.54-1.82-.54-2.81s.18-1.93,.54-2.82c.36-.89,.86-1.67,1.51-2.33,.65-.67,1.42-1.19,2.31-1.58,.89-.39,1.87-.58,2.93-.58s2.01,.19,2.9,.58c.89,.39,1.66,.91,2.31,1.57s1.15,1.43,1.51,2.31c.36,.88,.54,1.82,.54,2.81s-.19,1.93-.55,2.82Zm-1.97-4.91c-.26-.66-.63-1.24-1.09-1.74-.47-.49-1.02-.88-1.65-1.17-.63-.29-1.31-.43-2.05-.43s-1.45,.14-2.08,.42c-.63,.28-1.17,.66-1.61,1.16-.44,.49-.79,1.07-1.04,1.72-.25,.66-.38,1.36-.38,2.11s.13,1.46,.39,2.13c.26,.66,.62,1.24,1.08,1.72,.46,.48,1,.87,1.63,1.16,.63,.29,1.31,.43,2.05,.43s1.45-.14,2.08-.42c.63-.28,1.17-.66,1.62-1.14,.45-.48,.8-1.05,1.05-1.71,.25-.66,.38-1.36,.38-2.11s-.13-1.46-.39-2.13Z"/>
      <path class="cls-1" d="M86.62,19.3h-2.08V5.35h2.08v2.43c.47-.76,1.08-1.4,1.84-1.93,.76-.53,1.74-.8,2.94-.8,.85,0,1.6,.13,2.25,.41,.66,.27,1.21,.65,1.67,1.15s.81,1.08,1.05,1.77c.24,.68,.36,1.44,.36,2.27v8.67h-2.08V11.15c0-1.3-.33-2.32-1-3.08-.67-.76-1.62-1.13-2.86-1.13-.59,0-1.15,.1-1.66,.31-.51,.21-.96,.5-1.34,.89s-.67,.85-.88,1.39-.31,1.13-.31,1.78v7.99Z"/>
      <path class="cls-1" d="M112.33,.27h1.59V19.3h-2.13V2.48l-3.56,1.11-.51-1.73,4.62-1.59Z"/>
      <path class="cls-1" d="M118.69,19.3v-2.83h2.48v2.83h-2.48Z"/>
      <path class="cls-1" d="M139.75,13.61c-.38,1.19-.91,2.23-1.61,3.12-.69,.89-1.53,1.6-2.52,2.12-.99,.52-2.09,.78-3.29,.78s-2.33-.26-3.31-.77c-.98-.51-1.82-1.21-2.51-2.11-.69-.89-1.22-1.93-1.59-3.11-.37-1.18-.55-2.43-.55-3.77s.19-2.59,.57-3.78c.38-1.19,.91-2.23,1.61-3.12,.69-.89,1.53-1.6,2.52-2.12,.99-.52,2.1-.78,3.32-.78s2.3,.26,3.28,.77c.98,.51,1.82,1.21,2.51,2.11,.69,.89,1.22,1.93,1.59,3.11,.37,1.18,.55,2.43,.55,3.77s-.19,2.59-.57,3.78Zm-2.05-6.71c-.27-.95-.66-1.78-1.16-2.5-.5-.72-1.11-1.3-1.82-1.73s-1.51-.65-2.39-.65-1.68,.21-2.39,.63c-.71,.42-1.31,.99-1.81,1.7s-.88,1.54-1.15,2.48c-.27,.94-.4,1.94-.4,2.98s.13,2.04,.4,3,.66,1.79,1.16,2.51c.5,.72,1.12,1.29,1.84,1.71,.72,.42,1.52,.63,2.4,.63s1.68-.21,2.39-.63c.71-.42,1.31-.99,1.81-1.7,.49-.71,.87-1.54,1.13-2.48,.26-.94,.39-1.94,.39-2.98s-.13-2.04-.4-2.98Z"/>
      <path class="cls-1" d="M143.53,19.3v-2.83h2.48v2.83h-2.48Z"/>
      <path class="cls-1" d="M164.59,13.61c-.38,1.19-.91,2.23-1.61,3.12-.69,.89-1.53,1.6-2.52,2.12-.99,.52-2.09,.78-3.29,.78s-2.33-.26-3.31-.77c-.98-.51-1.82-1.21-2.51-2.11-.69-.89-1.22-1.93-1.59-3.11-.37-1.18-.55-2.43-.55-3.77s.19-2.59,.57-3.78c.38-1.19,.91-2.23,1.61-3.12,.69-.89,1.53-1.6,2.52-2.12,.99-.52,2.1-.78,3.32-.78s2.3,.26,3.28,.77c.98,.51,1.82,1.21,2.51,2.11,.69,.89,1.22,1.93,1.59,3.11,.37,1.18,.55,2.43,.55,3.77s-.19,2.59-.57,3.78Zm-2.05-6.71c-.27-.95-.66-1.78-1.16-2.5-.5-.72-1.11-1.3-1.82-1.73s-1.51-.65-2.39-.65-1.68,.21-2.39,.63c-.71,.42-1.31,.99-1.81,1.7s-.88,1.54-1.15,2.48c-.27,.94-.4,1.94-.4,2.98s.13,2.04,.4,3,.66,1.79,1.16,2.51c.5,.72,1.12,1.29,1.84,1.71,.72,.42,1.52,.63,2.4,.63s1.68-.21,2.39-.63c.71-.42,1.31-.99,1.81-1.7,.49-.71,.87-1.54,1.13-2.48,.26-.94,.39-1.94,.39-2.98s-.13-2.04-.4-2.98Z"/>
    </g>
  </g>
</svg>