<?xml version="1.0" encoding="UTF-8"?>
<svg id="Layer_2" data-name="Layer 2" xmlns="http://www.w3.org/2000/svg" viewBox="0 0 592.32 88.99">
  <defs>
    <style>
      .cls-1 {
        fill: #6032c2;
      }
    </style>
  </defs>
  <g id="Layer_1-2" data-name="Layer 1">
    <g>
      <path class="cls-1" d="M8.5,20.14c-1.22,0-2.35-.19-3.39-.55-1.04-.37-1.93-.9-2.69-1.61-.76-.7-1.35-1.55-1.78-2.54-.43-.99-.64-2.11-.64-3.35,0-1.51,.29-2.96,.88-4.36s1.4-2.62,2.43-3.67c1.03-1.05,2.24-1.89,3.62-2.53,1.39-.63,2.87-.95,4.46-.95,1.8,0,3.3,.37,4.51,1.09,1.21,.73,2.16,1.71,2.86,2.96l-2.75,1.86c-.29-.43-.59-.82-.92-1.17-.32-.35-.68-.65-1.08-.91-.4-.25-.84-.45-1.34-.58-.5-.13-1.05-.2-1.66-.2-1.01,0-1.97,.23-2.89,.67-.92,.45-1.72,1.06-2.42,1.82-.69,.77-1.25,1.65-1.66,2.66-.41,1.01-.62,2.06-.62,3.16,0,.77,.13,1.48,.38,2.11,.25,.63,.61,1.17,1.07,1.62,.46,.45,1,.8,1.62,1.04,.62,.24,1.31,.37,2.07,.37,1.08,0,2-.2,2.75-.59,.76-.4,1.51-.92,2.27-1.57l2.19,2.21c-.9,.86-1.93,1.58-3.08,2.15s-2.55,.85-4.19,.85Z"/>
      <path class="cls-1" d="M23.08,.11h3.27l-1.94,7.31c.58-.58,1.21-1.09,1.9-1.51,.69-.43,1.5-.64,2.42-.64,1.33,0,2.39,.38,3.17,1.15,.78,.76,1.17,1.8,1.17,3.12,0,.38-.05,.79-.14,1.23-.09,.44-.19,.87-.3,1.28l-2.05,7.78h-3.27l2.11-7.89c.07-.23,.13-.48,.16-.74,.04-.26,.05-.49,.05-.69,0-.72-.22-1.27-.65-1.66s-1.04-.58-1.84-.58c-.92,0-1.73,.33-2.43,.98-.7,.66-1.2,1.51-1.48,2.57l-2.16,8h-3.27L23.08,.11Z"/>
      <path class="cls-1" d="M42.28,20.14c-1.03,0-1.95-.16-2.77-.49-.82-.32-1.52-.78-2.11-1.36-.59-.58-1.04-1.27-1.35-2.07s-.47-1.66-.47-2.59c0-1.08,.22-2.12,.65-3.13,.43-1.01,1.03-1.9,1.78-2.67,.76-.77,1.64-1.39,2.65-1.86,1.01-.47,2.09-.7,3.24-.7,1.03,0,1.95,.16,2.77,.49,.82,.32,1.52,.78,2.11,1.36s1.04,1.28,1.35,2.08c.31,.8,.47,1.67,.47,2.61,0,1.08-.22,2.12-.66,3.13-.44,1.01-1.04,1.9-1.8,2.67s-1.64,1.39-2.65,1.85c-1.01,.46-2.08,.69-3.21,.69Zm.19-2.84c.68,0,1.32-.16,1.92-.49,.59-.32,1.11-.74,1.55-1.25,.44-.51,.79-1.09,1.04-1.74s.38-1.3,.38-1.94c0-1.21-.34-2.14-1.01-2.79-.68-.66-1.55-.99-2.63-.99-.7,0-1.35,.16-1.94,.49-.59,.32-1.11,.75-1.55,1.27-.44,.52-.78,1.11-1.03,1.75-.24,.65-.36,1.29-.36,1.92,0,1.21,.34,2.14,1.01,2.79,.68,.66,1.55,.98,2.63,.98Z"/>
      <path class="cls-1" d="M59.72,20.14c-1.03,0-1.95-.16-2.77-.49-.82-.32-1.52-.78-2.11-1.36-.59-.58-1.04-1.27-1.35-2.07s-.47-1.66-.47-2.59c0-1.08,.22-2.12,.65-3.13,.43-1.01,1.03-1.9,1.78-2.67,.76-.77,1.64-1.39,2.65-1.86,1.01-.47,2.09-.7,3.24-.7,1.03,0,1.95,.16,2.77,.49,.82,.32,1.52,.78,2.11,1.36s1.04,1.28,1.35,2.08c.31,.8,.47,1.67,.47,2.61,0,1.08-.22,2.12-.66,3.13-.44,1.01-1.04,1.9-1.8,2.67s-1.64,1.39-2.65,1.85c-1.01,.46-2.08,.69-3.21,.69Zm.19-2.84c.68,0,1.32-.16,1.92-.49,.59-.32,1.11-.74,1.55-1.25,.44-.51,.79-1.09,1.04-1.74s.38-1.3,.38-1.94c0-1.21-.34-2.14-1.01-2.79-.68-.66-1.55-.99-2.63-.99-.7,0-1.35,.16-1.94,.49-.59,.32-1.11,.75-1.55,1.27-.44,.52-.78,1.11-1.03,1.75-.24,.65-.36,1.29-.36,1.92,0,1.21,.34,2.14,1.01,2.79,.68,.66,1.55,.98,2.63,.98Z"/>
      <path class="cls-1" d="M75.09,20.14c-1.08,0-2.19-.21-3.33-.63-1.14-.42-2.13-1.07-2.96-1.93l1.94-2c.76,.76,1.53,1.28,2.32,1.57,.79,.29,1.55,.43,2.27,.43,.65,0,1.19-.15,1.63-.46,.44-.31,.66-.72,.66-1.24,0-.36-.17-.67-.5-.93-.33-.26-.86-.54-1.57-.85-.59-.23-1.14-.48-1.64-.73s-.93-.54-1.29-.85c-.36-.31-.64-.67-.85-1.08-.21-.41-.31-.88-.31-1.42,0-.67,.13-1.29,.39-1.86,.26-.58,.63-1.08,1.12-1.5,.49-.42,1.07-.76,1.75-1,.68-.24,1.46-.36,2.32-.36,1.13,0,2.18,.2,3.15,.61,.96,.4,1.74,.87,2.34,1.39l-1.81,2.11c-1.31-1.04-2.61-1.57-3.9-1.57-.7,0-1.24,.15-1.61,.46-.38,.31-.56,.69-.56,1.16,0,.36,.17,.67,.52,.95,.35,.27,.93,.58,1.73,.92,.54,.23,1.04,.48,1.52,.73s.89,.53,1.24,.84c.35,.31,.63,.66,.83,1.05,.21,.4,.31,.86,.31,1.38,0,.74-.15,1.4-.44,2-.29,.59-.69,1.1-1.21,1.53s-1.12,.75-1.82,.97-1.45,.34-2.26,.34Z"/>
      <path class="cls-1" d="M86.99,13.88c.02,1.08,.34,1.95,.96,2.61,.62,.66,1.53,.98,2.74,.98,.68,0,1.31-.11,1.88-.34,.57-.22,1.16-.57,1.77-1.04l1.57,2.08c-.68,.56-1.47,1.03-2.35,1.4-.88,.38-1.94,.57-3.19,.57-.99,0-1.89-.14-2.69-.43-.8-.29-1.48-.7-2.04-1.24-.56-.54-.99-1.2-1.3-1.97-.31-.77-.46-1.64-.46-2.59,0-1.04,.2-2.08,.61-3.12,.41-1.04,.98-1.96,1.73-2.78,.75-.82,1.63-1.48,2.66-1.98s2.16-.76,3.4-.76c.92,0,1.73,.14,2.43,.43,.7,.29,1.3,.68,1.78,1.17,.49,.5,.85,1.08,1.11,1.75,.25,.67,.38,1.4,.38,2.17,0,.5-.05,1.01-.16,1.53-.11,.51-.26,1.03-.46,1.55h-10.37Zm7.75-2.24c.09-.23,.13-.56,.13-.97,0-.74-.23-1.38-.67-1.92-.45-.54-1.17-.81-2.16-.81-1.12,0-2.09,.35-2.92,1.04-.83,.69-1.42,1.58-1.78,2.66h7.4Z"/>
      <path class="cls-1" d="M118.52,17.67c-.26,.51-.61,.95-1.05,1.31-.44,.36-.96,.63-1.57,.82s-1.26,.28-1.96,.28c-1.01,0-2.02-.18-3.05-.55-1.03-.37-1.94-.87-2.73-1.5l1.05-1.49c.76,.58,1.54,1.02,2.36,1.32,.82,.31,1.64,.46,2.47,.46s1.54-.2,2.08-.59c.54-.4,.81-.94,.81-1.62v-.05c0-.34-.09-.64-.28-.89-.19-.25-.45-.47-.77-.66-.32-.19-.7-.35-1.12-.5-.42-.14-.86-.28-1.31-.41-.54-.16-1.08-.34-1.63-.53-.55-.19-1.04-.43-1.48-.72-.44-.29-.8-.65-1.08-1.08-.28-.43-.42-.97-.42-1.62v-.05c0-.59,.12-1.14,.35-1.63,.23-.49,.56-.92,.99-1.27s.93-.62,1.51-.81c.58-.19,1.22-.28,1.9-.28,.86,0,1.74,.14,2.62,.42,.88,.28,1.68,.65,2.4,1.12l-.94,1.57c-.65-.41-1.33-.74-2.04-.98-.71-.24-1.41-.37-2.09-.37-.83,0-1.49,.19-1.97,.58-.49,.39-.73,.87-.73,1.45v.05c0,.32,.1,.61,.3,.85s.46,.46,.8,.63c.33,.18,.72,.34,1.15,.49,.43,.14,.88,.29,1.35,.43,.54,.16,1.08,.34,1.61,.54,.53,.2,1.01,.45,1.44,.76s.78,.67,1.04,1.11c.26,.43,.39,.96,.39,1.59v.05c0,.67-.13,1.25-.39,1.77Z"/>
      <path class="cls-1" d="M124.58,15.62c.29,.59,.66,1.08,1.11,1.49,.45,.4,.95,.71,1.51,.92,.56,.21,1.14,.31,1.75,.31,.97,0,1.8-.18,2.5-.54,.69-.36,1.33-.84,1.9-1.43l1.3,1.16c-.7,.79-1.5,1.43-2.4,1.9-.9,.48-2.02,.72-3.35,.72-.95,0-1.85-.18-2.7-.53-.85-.35-1.59-.85-2.22-1.48-.63-.64-1.14-1.41-1.51-2.31-.37-.9-.56-1.89-.56-2.97,0-1.01,.17-1.96,.5-2.85,.33-.89,.8-1.66,1.39-2.32,.59-.66,1.3-1.17,2.12-1.55,.82-.38,1.71-.57,2.69-.57,1.03,0,1.94,.19,2.75,.58,.81,.39,1.49,.91,2.05,1.58,.56,.67,.98,1.45,1.27,2.35,.29,.9,.43,1.86,.43,2.89v.3c0,.11,0,.22-.03,.35h-11.04c.07,.76,.25,1.43,.54,2.01Zm8.4-3.55c-.05-.63-.18-1.23-.39-1.81-.21-.58-.49-1.08-.86-1.51-.37-.43-.81-.78-1.34-1.04-.53-.26-1.14-.39-1.84-.39-.61,0-1.17,.12-1.69,.36-.52,.24-.98,.58-1.37,1s-.72,.92-.97,1.5c-.25,.58-.41,1.21-.48,1.89h8.94Z"/>
      <path class="cls-1" d="M141.56,15.85c0,.86,.22,1.47,.65,1.81,.43,.34,1,.51,1.7,.51,.36,0,.7-.04,1.01-.11,.31-.07,.65-.2,1.01-.38v1.78c-.36,.2-.74,.35-1.15,.45-.4,.1-.86,.15-1.36,.15-.56,0-1.08-.07-1.57-.22-.49-.14-.9-.37-1.26-.69-.35-.31-.63-.72-.82-1.23-.2-.5-.3-1.11-.3-1.81V7.7h-1.94v-1.84h1.94V1.65h2.08V5.86h4.43v1.84h-4.43V15.85Z"/>
      <path class="cls-1" d="M152.47,15.85c0,.86,.22,1.47,.65,1.81,.43,.34,1,.51,1.7,.51,.36,0,.7-.04,1.01-.11,.31-.07,.65-.2,1.01-.38v1.78c-.36,.2-.74,.35-1.15,.45-.4,.1-.86,.15-1.36,.15-.56,0-1.08-.07-1.57-.22-.49-.14-.9-.37-1.26-.69-.35-.31-.63-.72-.82-1.23-.2-.5-.3-1.11-.3-1.81V7.7h-1.94v-1.84h1.94V1.65h2.08V5.86h4.43v1.84h-4.43V15.85Z"/>
      <path class="cls-1" d="M160.62,2.81V.51h2.38V2.81h-2.38Zm.14,17.01V5.86h2.08v13.96h-2.08Z"/>
      <path class="cls-1" d="M169.75,19.82h-2.08V5.86h2.08v2.43c.47-.76,1.08-1.4,1.84-1.93,.76-.53,1.74-.8,2.94-.8,.85,0,1.6,.13,2.25,.4,.66,.27,1.21,.65,1.67,1.15s.81,1.08,1.05,1.77c.24,.69,.36,1.44,.36,2.27v8.67h-2.08V11.66c0-1.3-.33-2.32-1-3.08-.67-.76-1.62-1.13-2.86-1.13-.59,0-1.15,.1-1.66,.31-.51,.21-.96,.5-1.34,.89s-.67,.85-.88,1.39c-.21,.54-.31,1.13-.31,1.78v7.99Z"/>
      <path class="cls-1" d="M197.08,20.36c-.33,.85-.81,1.55-1.43,2.12-.62,.57-1.37,.99-2.24,1.28-.87,.29-1.85,.43-2.93,.43-1.17,0-2.29-.16-3.35-.49-1.06-.32-2.06-.81-3-1.46l.94-1.62c.81,.58,1.66,1.02,2.54,1.32,.88,.31,1.83,.46,2.83,.46,1.55,0,2.78-.42,3.7-1.26,.92-.84,1.38-2.07,1.38-3.71v-1.65c-.61,.81-1.36,1.5-2.24,2.08-.88,.58-1.96,.86-3.24,.86-.85,0-1.66-.15-2.44-.45-.78-.3-1.48-.73-2.09-1.3-.61-.57-1.1-1.26-1.47-2.07-.37-.81-.55-1.73-.55-2.75s.18-1.95,.55-2.77c.37-.82,.86-1.51,1.47-2.08,.61-.57,1.31-1,2.11-1.31,.79-.31,1.6-.46,2.43-.46,.65,0,1.25,.08,1.8,.23,.55,.15,1.04,.36,1.48,.61,.44,.25,.84,.55,1.2,.89,.36,.34,.68,.7,.97,1.08v-2.51h2.08v11.53c0,1.13-.17,2.12-.5,2.97Zm-1.93-10.17c-.29-.59-.67-1.08-1.15-1.5s-1.02-.73-1.63-.96c-.61-.22-1.25-.34-1.92-.34s-1.29,.11-1.88,.32c-.58,.22-1.1,.53-1.54,.95-.44,.41-.79,.91-1.04,1.5-.25,.58-.38,1.24-.38,1.96s.13,1.37,.39,1.96c.26,.58,.61,1.09,1.05,1.51s.95,.75,1.54,.97c.58,.23,1.2,.34,1.85,.34s1.3-.11,1.92-.34c.61-.22,1.16-.54,1.63-.96s.86-.91,1.15-1.5c.29-.58,.43-1.24,.43-1.96s-.14-1.37-.43-1.96Z"/>
      <path class="cls-1" d="M211.42,17.67c-.26,.51-.61,.95-1.05,1.31-.44,.36-.96,.63-1.57,.82s-1.26,.28-1.96,.28c-1.01,0-2.02-.18-3.05-.55-1.03-.37-1.94-.87-2.73-1.5l1.05-1.49c.76,.58,1.54,1.02,2.36,1.32,.82,.31,1.64,.46,2.47,.46s1.54-.2,2.08-.59c.54-.4,.81-.94,.81-1.62v-.05c0-.34-.09-.64-.28-.89-.19-.25-.45-.47-.77-.66-.32-.19-.7-.35-1.12-.5-.42-.14-.86-.28-1.31-.41-.54-.16-1.08-.34-1.63-.53-.55-.19-1.04-.43-1.48-.72-.44-.29-.8-.65-1.08-1.08-.28-.43-.42-.97-.42-1.62v-.05c0-.59,.12-1.14,.35-1.63,.23-.49,.56-.92,.99-1.27s.93-.62,1.51-.81c.58-.19,1.22-.28,1.9-.28,.86,0,1.74,.14,2.62,.42,.88,.28,1.68,.65,2.4,1.12l-.94,1.57c-.65-.41-1.33-.74-2.04-.98-.71-.24-1.41-.37-2.09-.37-.83,0-1.49,.19-1.97,.58-.49,.39-.73,.87-.73,1.45v.05c0,.32,.1,.61,.3,.85s.46,.46,.8,.63c.33,.18,.72,.34,1.15,.49,.43,.14,.88,.29,1.35,.43,.54,.16,1.08,.34,1.61,.54,.53,.2,1.01,.45,1.44,.76s.78,.67,1.04,1.11c.26,.43,.39,.96,.39,1.59v.05c0,.67-.13,1.25-.39,1.77Z"/>
      <path class="cls-1" d="M237.3,15.9c-.38,.9-.88,1.66-1.5,2.28-.62,.62-1.33,1.1-2.13,1.43-.8,.33-1.62,.5-2.47,.5-.65,0-1.24-.08-1.78-.24-.54-.16-1.03-.38-1.46-.65-.43-.27-.82-.58-1.17-.95-.35-.36-.66-.74-.93-1.13v2.67h-2.08V.11h2.08V8.67c.29-.41,.61-.81,.96-1.19s.74-.71,1.17-.99c.43-.28,.91-.5,1.44-.68,.53-.17,1.12-.26,1.77-.26,.83,0,1.64,.16,2.44,.49,.8,.32,1.52,.8,2.15,1.42,.63,.62,1.13,1.38,1.51,2.28,.38,.9,.57,1.93,.57,3.08s-.19,2.18-.57,3.08Zm-1.96-5.28c-.26-.66-.62-1.23-1.07-1.71-.45-.47-.97-.84-1.57-1.09-.59-.25-1.22-.38-1.89-.38s-1.27,.13-1.88,.39c-.6,.26-1.14,.62-1.62,1.09-.48,.47-.85,1.03-1.13,1.69-.28,.66-.42,1.4-.42,2.2s.14,1.54,.42,2.22c.28,.67,.66,1.24,1.13,1.71,.48,.47,1.02,.83,1.62,1.09,.6,.26,1.23,.39,1.88,.39s1.3-.12,1.9-.36c.6-.24,1.12-.59,1.57-1.05,.44-.46,.79-1.02,1.05-1.69,.26-.67,.39-1.43,.39-2.27s-.13-1.57-.39-2.23Z"/>
      <path class="cls-1" d="M244.49,7.79c-.68,.19-1.34,.44-1.98,.74l-.62-1.7c.77-.36,1.56-.64,2.35-.85s1.7-.31,2.73-.31c1.91,0,3.38,.47,4.4,1.42,1.03,.95,1.54,2.34,1.54,4.2v8.53h-2v-2.11c-.49,.63-1.14,1.19-1.96,1.67s-1.85,.73-3.09,.73c-.65,0-1.28-.09-1.9-.27-.62-.18-1.18-.46-1.67-.82-.5-.37-.89-.82-1.19-1.36-.3-.54-.45-1.18-.45-1.92s.14-1.39,.43-1.96c.29-.57,.7-1.04,1.23-1.42,.53-.38,1.16-.67,1.89-.86,.73-.2,1.53-.3,2.42-.3s1.68,.05,2.35,.16c.67,.11,1.31,.25,1.94,.43v-.49c0-1.26-.36-2.21-1.09-2.85s-1.75-.96-3.06-.96c-.83,0-1.58,.1-2.25,.28Zm-.67,5.74c-.7,.52-1.05,1.23-1.05,2.13,0,.45,.09,.85,.28,1.19,.19,.34,.44,.63,.77,.88,.32,.24,.69,.43,1.12,.55,.42,.13,.87,.19,1.33,.19,.65,0,1.25-.09,1.82-.28,.57-.19,1.06-.45,1.48-.78,.42-.33,.75-.73,1-1.19s.36-.97,.36-1.53v-1.35c-.52-.14-1.12-.28-1.79-.4-.67-.13-1.44-.19-2.3-.19-1.31,0-2.31,.26-3.01,.78Z"/>
      <path class="cls-1" d="M266.53,17.67c-.26,.51-.61,.95-1.05,1.31-.44,.36-.96,.63-1.57,.82s-1.26,.28-1.96,.28c-1.01,0-2.02-.18-3.05-.55-1.03-.37-1.94-.87-2.73-1.5l1.05-1.49c.76,.58,1.54,1.02,2.36,1.32,.82,.31,1.64,.46,2.47,.46s1.54-.2,2.08-.59c.54-.4,.81-.94,.81-1.62v-.05c0-.34-.09-.64-.28-.89-.19-.25-.45-.47-.77-.66-.32-.19-.7-.35-1.12-.5-.42-.14-.86-.28-1.31-.41-.54-.16-1.08-.34-1.63-.53-.55-.19-1.04-.43-1.48-.72-.44-.29-.8-.65-1.08-1.08-.28-.43-.42-.97-.42-1.62v-.05c0-.59,.12-1.14,.35-1.63,.23-.49,.56-.92,.99-1.27s.93-.62,1.51-.81c.58-.19,1.22-.28,1.9-.28,.86,0,1.74,.14,2.62,.42,.88,.28,1.68,.65,2.4,1.12l-.94,1.57c-.65-.41-1.33-.74-2.04-.98-.71-.24-1.41-.37-2.09-.37-.83,0-1.49,.19-1.97,.58-.49,.39-.73,.87-.73,1.45v.05c0,.32,.1,.61,.3,.85s.46,.46,.8,.63c.33,.18,.72,.34,1.15,.49,.43,.14,.88,.29,1.35,.43,.54,.16,1.08,.34,1.61,.54,.53,.2,1.01,.45,1.44,.76s.78,.67,1.04,1.11c.26,.43,.39,.96,.39,1.59v.05c0,.67-.13,1.25-.39,1.77Z"/>
      <path class="cls-1" d="M272.59,15.62c.29,.59,.66,1.08,1.11,1.49,.45,.4,.95,.71,1.51,.92,.56,.21,1.14,.31,1.75,.31,.97,0,1.8-.18,2.5-.54,.69-.36,1.33-.84,1.9-1.43l1.3,1.16c-.7,.79-1.5,1.43-2.4,1.9-.9,.48-2.02,.72-3.35,.72-.95,0-1.85-.18-2.7-.53-.85-.35-1.59-.85-2.22-1.48-.63-.64-1.14-1.41-1.51-2.31-.37-.9-.56-1.89-.56-2.97,0-1.01,.17-1.96,.5-2.85,.33-.89,.8-1.66,1.39-2.32,.59-.66,1.3-1.17,2.12-1.55,.82-.38,1.71-.57,2.69-.57,1.03,0,1.94,.19,2.75,.58,.81,.39,1.49,.91,2.05,1.58,.56,.67,.98,1.45,1.27,2.35,.29,.9,.43,1.86,.43,2.89v.3c0,.11,0,.22-.03,.35h-11.04c.07,.76,.25,1.43,.54,2.01Zm8.4-3.55c-.05-.63-.18-1.23-.39-1.81-.21-.58-.49-1.08-.86-1.51-.37-.43-.81-.78-1.34-1.04-.53-.26-1.14-.39-1.84-.39-.61,0-1.17,.12-1.69,.36-.52,.24-.98,.58-1.37,1s-.72,.92-.97,1.5c-.25,.58-.41,1.21-.48,1.89h8.94Z"/>
      <path class="cls-1" d="M297.97,19.82v-2.81c-.29,.42-.61,.81-.96,1.19s-.74,.71-1.17,1c-.43,.29-.91,.51-1.44,.68-.53,.16-1.12,.24-1.77,.24-.85,0-1.67-.16-2.46-.49-.79-.32-1.5-.8-2.13-1.42s-1.13-1.38-1.51-2.28c-.38-.9-.57-1.93-.57-3.08s.19-2.18,.57-3.08c.38-.9,.88-1.66,1.51-2.28,.63-.62,1.34-1.1,2.13-1.43,.79-.33,1.61-.5,2.46-.5,.65,0,1.24,.08,1.78,.24,.54,.16,1.03,.38,1.46,.65s.82,.59,1.17,.95c.35,.36,.66,.74,.93,1.13V.11h2.08V19.82h-2.08Zm-.34-9.2c-.28-.66-.66-1.23-1.13-1.69-.48-.46-1.02-.83-1.62-1.09-.6-.26-1.23-.39-1.88-.39-.68,0-1.32,.12-1.92,.36-.59,.24-1.11,.59-1.55,1.05-.44,.46-.79,1.02-1.05,1.69-.26,.67-.39,1.43-.39,2.27s.13,1.57,.39,2.23c.26,.66,.62,1.23,1.07,1.71,.45,.47,.97,.84,1.57,1.09,.59,.25,1.22,.38,1.89,.38s1.27-.13,1.88-.39c.6-.26,1.14-.62,1.62-1.09,.48-.47,.85-1.04,1.13-1.71,.28-.67,.42-1.41,.42-2.22s-.14-1.54-.42-2.2Z"/>
      <path class="cls-1" d="M325.93,15.65c-.37,.89-.88,1.67-1.53,2.34s-1.42,1.19-2.32,1.58c-.9,.39-1.87,.58-2.92,.58s-2.01-.19-2.89-.58c-.88-.39-1.65-.91-2.3-1.57-.65-.66-1.15-1.43-1.51-2.31-.36-.88-.54-1.82-.54-2.81s.18-1.93,.54-2.82c.36-.89,.86-1.67,1.51-2.33,.65-.67,1.42-1.19,2.31-1.58,.89-.39,1.87-.58,2.93-.58s2.01,.19,2.9,.58c.89,.39,1.66,.91,2.31,1.57s1.15,1.43,1.51,2.31c.36,.88,.54,1.82,.54,2.81s-.19,1.93-.55,2.82Zm-1.97-4.91c-.26-.66-.63-1.24-1.09-1.74-.47-.49-1.02-.88-1.65-1.17-.63-.29-1.31-.43-2.05-.43s-1.45,.14-2.08,.42c-.63,.28-1.17,.66-1.61,1.16-.44,.49-.79,1.07-1.04,1.72-.25,.66-.38,1.36-.38,2.12s.13,1.46,.39,2.13c.26,.67,.62,1.24,1.08,1.72,.46,.48,1,.87,1.63,1.16,.63,.29,1.31,.43,2.05,.43s1.45-.14,2.08-.42c.63-.28,1.17-.66,1.62-1.15,.45-.48,.8-1.05,1.05-1.71,.25-.66,.38-1.36,.38-2.12s-.13-1.46-.39-2.13Z"/>
      <path class="cls-1" d="M332.31,19.82h-2.08V5.86h2.08v2.43c.47-.76,1.08-1.4,1.84-1.93,.76-.53,1.74-.8,2.94-.8,.85,0,1.6,.13,2.25,.4,.66,.27,1.21,.65,1.67,1.15s.81,1.08,1.05,1.77c.24,.69,.36,1.44,.36,2.27v8.67h-2.08V11.66c0-1.3-.33-2.32-1-3.08-.67-.76-1.62-1.13-2.86-1.13-.59,0-1.15,.1-1.66,.31-.51,.21-.96,.5-1.34,.89s-.67,.85-.88,1.39c-.21,.54-.31,1.13-.31,1.78v7.99Z"/>
      <path class="cls-1" d="M361.77,20.28c-.59,1.44-1.26,2.46-1.98,3.05s-1.62,.89-2.66,.89c-.58,0-1.1-.06-1.57-.17-.47-.12-.94-.29-1.4-.53l.7-1.65c.34,.18,.68,.31,1.01,.39,.33,.08,.72,.12,1.17,.12,.63,0,1.16-.19,1.59-.57,.43-.38,.85-1.06,1.27-2.05l-6.35-13.9h2.29l5.08,11.64,4.48-11.64h2.21l-5.86,14.42Z"/>
      <path class="cls-1" d="M383.25,15.65c-.37,.89-.88,1.67-1.53,2.34s-1.42,1.19-2.32,1.58c-.9,.39-1.87,.58-2.92,.58s-2.01-.19-2.89-.58c-.88-.39-1.65-.91-2.3-1.57-.65-.66-1.15-1.43-1.51-2.31-.36-.88-.54-1.82-.54-2.81s.18-1.93,.54-2.82c.36-.89,.86-1.67,1.51-2.33,.65-.67,1.42-1.19,2.31-1.58,.89-.39,1.87-.58,2.93-.58s2.01,.19,2.9,.58c.89,.39,1.66,.91,2.31,1.57s1.15,1.43,1.51,2.31c.36,.88,.54,1.82,.54,2.81s-.19,1.93-.55,2.82Zm-1.97-4.91c-.26-.66-.63-1.24-1.09-1.74-.47-.49-1.02-.88-1.65-1.17-.63-.29-1.31-.43-2.05-.43s-1.45,.14-2.08,.42c-.63,.28-1.17,.66-1.61,1.16-.44,.49-.79,1.07-1.04,1.72-.25,.66-.38,1.36-.38,2.12s.13,1.46,.39,2.13c.26,.67,.62,1.24,1.08,1.72,.46,.48,1,.87,1.63,1.16,.63,.29,1.31,.43,2.05,.43s1.45-.14,2.08-.42c.63-.28,1.17-.66,1.62-1.15,.45-.48,.8-1.05,1.05-1.71,.25-.66,.38-1.36,.38-2.12s-.13-1.46-.39-2.13Z"/>
      <path class="cls-1" d="M397.46,5.86h2.05v13.96h-2.05v-2.43c-.47,.76-1.08,1.4-1.84,1.93-.76,.53-1.74,.8-2.94,.8-.85,0-1.6-.13-2.25-.4-.66-.27-1.21-.65-1.67-1.15-.46-.49-.81-1.08-1.05-1.77-.24-.68-.36-1.44-.36-2.27V5.86h2.08V14.01c0,1.3,.33,2.32,1,3.08,.67,.76,1.62,1.13,2.86,1.13,.59,0,1.15-.1,1.66-.31s.95-.5,1.32-.89c.37-.39,.66-.85,.88-1.39,.22-.54,.32-1.13,.32-1.78V5.86Z"/>
      <path class="cls-1" d="M406.26,19.82h-2.08V5.86h2.08v3.64c.25-.58,.57-1.11,.95-1.59,.38-.49,.81-.9,1.3-1.25,.49-.35,1.02-.62,1.59-.8s1.2-.26,1.86-.24v2.24h-.16c-.76,0-1.47,.13-2.15,.4-.68,.27-1.26,.68-1.77,1.22s-.9,1.21-1.19,2.01c-.29,.8-.43,1.72-.43,2.77v5.56Z"/>
      <path class="cls-1" d="M426.03,15.85c0,.86,.22,1.47,.65,1.81,.43,.34,1,.51,1.7,.51,.36,0,.7-.04,1.01-.11,.31-.07,.65-.2,1.01-.38v1.78c-.36,.2-.74,.35-1.15,.45-.4,.1-.86,.15-1.36,.15-.56,0-1.08-.07-1.57-.22-.49-.14-.9-.37-1.26-.69-.35-.31-.63-.72-.82-1.23-.2-.5-.3-1.11-.3-1.81V7.7h-1.94v-1.84h1.94V1.65h2.08V5.86h4.43v1.84h-4.43V15.85Z"/>
      <path class="cls-1" d="M440.93,20.28c-.59,1.44-1.26,2.46-1.98,3.05s-1.62,.89-2.66,.89c-.58,0-1.1-.06-1.57-.17-.47-.12-.94-.29-1.4-.53l.7-1.65c.34,.18,.68,.31,1.01,.39,.33,.08,.72,.12,1.17,.12,.63,0,1.16-.19,1.59-.57,.43-.38,.85-1.06,1.27-2.05l-6.35-13.9h2.29l5.08,11.64,4.48-11.64h2.21l-5.86,14.42Z"/>
      <path class="cls-1" d="M463.61,15.9c-.38,.9-.88,1.66-1.5,2.28-.62,.62-1.33,1.1-2.13,1.43-.8,.33-1.62,.5-2.47,.5-.65,0-1.24-.08-1.78-.24-.54-.16-1.03-.38-1.46-.65-.43-.27-.82-.58-1.17-.95-.35-.36-.66-.74-.93-1.13v6.99h-2.08V5.86h2.08v2.81c.29-.41,.61-.81,.96-1.19s.74-.71,1.17-.99c.43-.28,.91-.5,1.44-.68,.53-.17,1.12-.26,1.77-.26,.83,0,1.64,.16,2.44,.49,.8,.32,1.52,.8,2.15,1.42,.63,.62,1.13,1.38,1.51,2.28,.38,.9,.57,1.93,.57,3.08s-.19,2.18-.57,3.08Zm-1.96-5.28c-.26-.66-.62-1.23-1.07-1.71-.45-.47-.97-.84-1.57-1.09-.59-.25-1.22-.38-1.89-.38s-1.27,.13-1.88,.39c-.6,.26-1.14,.62-1.62,1.09-.48,.47-.85,1.03-1.13,1.69-.28,.66-.42,1.4-.42,2.2s.14,1.54,.42,2.22c.28,.67,.66,1.24,1.13,1.71,.48,.47,1.02,.83,1.62,1.09,.6,.26,1.23,.39,1.88,.39s1.3-.12,1.9-.36c.6-.24,1.12-.59,1.57-1.05,.44-.46,.79-1.02,1.05-1.69,.26-.67,.39-1.43,.39-2.27s-.13-1.57-.39-2.23Z"/>
      <path class="cls-1" d="M469.82,15.62c.29,.59,.66,1.08,1.11,1.49,.45,.4,.95,.71,1.51,.92,.56,.21,1.14,.31,1.75,.31,.97,0,1.8-.18,2.5-.54,.69-.36,1.33-.84,1.9-1.43l1.3,1.16c-.7,.79-1.5,1.43-2.4,1.9-.9,.48-2.02,.72-3.35,.72-.95,0-1.85-.18-2.7-.53-.85-.35-1.59-.85-2.22-1.48-.63-.64-1.14-1.41-1.51-2.31-.37-.9-.56-1.89-.56-2.97,0-1.01,.17-1.96,.5-2.85,.33-.89,.8-1.66,1.39-2.32,.59-.66,1.3-1.17,2.12-1.55,.82-.38,1.71-.57,2.69-.57,1.03,0,1.94,.19,2.75,.58,.81,.39,1.49,.91,2.05,1.58,.56,.67,.98,1.45,1.27,2.35,.29,.9,.43,1.86,.43,2.89v.3c0,.11,0,.22-.03,.35h-11.04c.07,.76,.25,1.43,.54,2.01Zm8.4-3.55c-.05-.63-.18-1.23-.39-1.81-.21-.58-.49-1.08-.86-1.51-.37-.43-.81-.78-1.34-1.04-.53-.26-1.14-.39-1.84-.39-.61,0-1.17,.12-1.69,.36-.52,.24-.98,.58-1.37,1s-.72,.92-.97,1.5c-.25,.58-.41,1.21-.48,1.89h8.94Z"/>
      <path class="cls-1" d="M505.23,15.65c-.37,.89-.88,1.67-1.53,2.34s-1.42,1.19-2.32,1.58c-.9,.39-1.87,.58-2.92,.58s-2.01-.19-2.89-.58c-.88-.39-1.65-.91-2.3-1.57-.65-.66-1.15-1.43-1.51-2.31-.36-.88-.54-1.82-.54-2.81s.18-1.93,.54-2.82c.36-.89,.86-1.67,1.51-2.33,.65-.67,1.42-1.19,2.31-1.58,.89-.39,1.87-.58,2.93-.58s2.01,.19,2.9,.58c.89,.39,1.66,.91,2.31,1.57s1.15,1.43,1.51,2.31c.36,.88,.54,1.82,.54,2.81s-.19,1.93-.55,2.82Zm-1.97-4.91c-.26-.66-.63-1.24-1.09-1.74-.47-.49-1.02-.88-1.65-1.17-.63-.29-1.31-.43-2.05-.43s-1.45,.14-2.08,.42c-.63,.28-1.17,.66-1.61,1.16-.44,.49-.79,1.07-1.04,1.72-.25,.66-.38,1.36-.38,2.12s.13,1.46,.39,2.13c.26,.67,.62,1.24,1.08,1.72,.46,.48,1,.87,1.63,1.16,.63,.29,1.31,.43,2.05,.43s1.45-.14,2.08-.42c.63-.28,1.17-.66,1.62-1.15,.45-.48,.8-1.05,1.05-1.71,.25-.66,.38-1.36,.38-2.12s-.13-1.46-.39-2.13Z"/>
      <path class="cls-1" d="M516.8,5.91v1.78h-4.4v12.12h-2.08V7.7h-1.92v-1.81h1.92v-1.21c0-1.53,.36-2.69,1.09-3.48s1.77-1.19,3.12-1.19c.49,0,.9,.03,1.26,.08,.35,.05,.7,.14,1.04,.27v1.81c-.38-.11-.72-.19-1.03-.26-.31-.06-.64-.09-1-.09-1.62,0-2.43,.99-2.43,2.97v1.13h4.43Z"/>
      <path class="cls-1" d="M537.14,19.38c-.89,.51-1.99,.77-3.31,.77-1.03,0-1.98-.19-2.85-.58-.87-.39-1.63-.91-2.27-1.57-.64-.66-1.14-1.43-1.5-2.31-.36-.88-.54-1.82-.54-2.81s.18-1.93,.54-2.82c.36-.89,.86-1.67,1.5-2.33,.64-.67,1.39-1.19,2.27-1.58,.87-.39,1.82-.58,2.85-.58,.67,0,1.27,.06,1.81,.19,.54,.12,1.04,.3,1.49,.53,.45,.23,.86,.49,1.24,.8,.38,.31,.73,.63,1.05,.97l-1.38,1.46c-.56-.58-1.17-1.07-1.82-1.48-.66-.41-1.46-.62-2.42-.62-.7,0-1.36,.14-1.97,.42-.61,.28-1.14,.66-1.59,1.16-.45,.49-.8,1.07-1.05,1.72-.25,.66-.38,1.36-.38,2.12s.13,1.46,.39,2.13c.26,.67,.62,1.24,1.08,1.74,.46,.49,1,.88,1.62,1.16s1.3,.42,2.04,.42c.9,0,1.7-.2,2.39-.59,.69-.4,1.32-.89,1.88-1.48l1.32,1.24c-.7,.79-1.5,1.45-2.39,1.96Z"/>
      <path class="cls-1" d="M555.69,15.65c-.37,.89-.88,1.67-1.53,2.34s-1.42,1.19-2.32,1.58c-.9,.39-1.87,.58-2.92,.58s-2.01-.19-2.89-.58c-.88-.39-1.65-.91-2.3-1.57-.65-.66-1.15-1.43-1.51-2.31-.36-.88-.54-1.82-.54-2.81s.18-1.93,.54-2.82c.36-.89,.86-1.67,1.51-2.33,.65-.67,1.42-1.19,2.31-1.58,.89-.39,1.87-.58,2.93-.58s2.01,.19,2.9,.58c.89,.39,1.66,.91,2.31,1.57s1.15,1.43,1.51,2.31c.36,.88,.54,1.82,.54,2.81s-.19,1.93-.55,2.82Zm-1.97-4.91c-.26-.66-.63-1.24-1.09-1.74-.47-.49-1.02-.88-1.65-1.17-.63-.29-1.31-.43-2.05-.43s-1.45,.14-2.08,.42c-.63,.28-1.17,.66-1.61,1.16-.44,.49-.79,1.07-1.04,1.72-.25,.66-.38,1.36-.38,2.12s.13,1.46,.39,2.13c.26,.67,.62,1.24,1.08,1.72,.46,.48,1,.87,1.63,1.16,.63,.29,1.31,.43,2.05,.43s1.45-.14,2.08-.42c.63-.28,1.17-.66,1.62-1.15,.45-.48,.8-1.05,1.05-1.71,.25-.66,.38-1.36,.38-2.12s-.13-1.46-.39-2.13Z"/>
      <path class="cls-1" d="M560.19,19.82V.11h2.08V19.82h-2.08Z"/>
      <path class="cls-1" d="M580.23,15.65c-.37,.89-.88,1.67-1.53,2.34s-1.42,1.19-2.32,1.58c-.9,.39-1.87,.58-2.92,.58s-2.01-.19-2.89-.58c-.88-.39-1.65-.91-2.3-1.57-.65-.66-1.15-1.43-1.51-2.31-.36-.88-.54-1.82-.54-2.81s.18-1.93,.54-2.82c.36-.89,.86-1.67,1.51-2.33,.65-.67,1.42-1.19,2.31-1.58,.89-.39,1.87-.58,2.93-.58s2.01,.19,2.9,.58c.89,.39,1.66,.91,2.31,1.57s1.15,1.43,1.51,2.31c.36,.88,.54,1.82,.54,2.81s-.19,1.93-.55,2.82Zm-1.97-4.91c-.26-.66-.63-1.24-1.09-1.74-.47-.49-1.02-.88-1.65-1.17-.63-.29-1.31-.43-2.05-.43s-1.45,.14-2.08,.42c-.63,.28-1.17,.66-1.61,1.16-.44,.49-.79,1.07-1.04,1.72-.25,.66-.38,1.36-.38,2.12s.13,1.46,.39,2.13c.26,.67,.62,1.24,1.08,1.72,.46,.48,1,.87,1.63,1.16,.63,.29,1.31,.43,2.05,.43s1.45-.14,2.08-.42c.63-.28,1.17-.66,1.62-1.15,.45-.48,.8-1.05,1.05-1.71,.25-.66,.38-1.36,.38-2.12s-.13-1.46-.39-2.13Z"/>
      <path class="cls-1" d="M586.62,19.82h-2.08V5.86h2.08v3.64c.25-.58,.57-1.11,.95-1.59,.38-.49,.81-.9,1.3-1.25,.49-.35,1.02-.62,1.59-.8s1.2-.26,1.86-.24v2.24h-.16c-.76,0-1.47,.13-2.15,.4-.68,.27-1.26,.68-1.77,1.22s-.9,1.21-1.19,2.01c-.29,.8-.43,1.72-.43,2.77v5.56Z"/>
      <path class="cls-1" d="M214.32,48.3c-.38,.9-.88,1.66-1.5,2.28-.62,.62-1.33,1.1-2.13,1.43-.8,.33-1.62,.5-2.47,.5-.65,0-1.24-.08-1.78-.24-.54-.16-1.03-.38-1.46-.65-.43-.27-.82-.58-1.17-.94-.35-.36-.66-.74-.93-1.13v2.67h-2.08v-19.71h2.08v8.56c.29-.41,.61-.81,.96-1.19,.35-.38,.74-.71,1.17-.99,.43-.28,.91-.5,1.44-.67,.53-.17,1.12-.26,1.77-.26,.83,0,1.64,.16,2.44,.49,.8,.32,1.52,.8,2.15,1.42,.63,.62,1.13,1.38,1.51,2.28s.57,1.93,.57,3.08-.19,2.18-.57,3.08Zm-1.96-5.28c-.26-.66-.62-1.23-1.07-1.71-.45-.47-.97-.84-1.57-1.09-.59-.25-1.22-.38-1.89-.38s-1.27,.13-1.88,.39c-.6,.26-1.14,.62-1.62,1.09-.48,.47-.85,1.03-1.13,1.69s-.42,1.4-.42,2.2,.14,1.54,.42,2.22,.66,1.24,1.13,1.71c.48,.46,1.02,.83,1.62,1.09,.6,.26,1.23,.39,1.88,.39s1.3-.12,1.9-.36,1.12-.59,1.57-1.05,.79-1.02,1.05-1.69c.26-.67,.39-1.43,.39-2.27s-.13-1.57-.39-2.23Z"/>
      <path class="cls-1" d="M218.91,52.22v-19.71h2.08v19.71h-2.08Z"/>
      <path class="cls-1" d="M225.88,35.21v-2.3h2.38v2.3h-2.38Zm.14,17.01v-13.96h2.08v13.96h-2.08Z"/>
      <path class="cls-1" d="M235,52.22h-2.08v-13.96h2.08v2.43c.47-.76,1.08-1.4,1.84-1.93,.76-.53,1.74-.8,2.94-.8,.85,0,1.6,.13,2.25,.4,.66,.27,1.21,.65,1.67,1.15s.81,1.08,1.05,1.77c.24,.68,.36,1.44,.36,2.27v8.67h-2.08v-8.15c0-1.3-.33-2.32-1-3.08-.67-.76-1.62-1.13-2.86-1.13-.59,0-1.15,.1-1.66,.31-.51,.21-.96,.5-1.34,.89-.38,.39-.67,.85-.88,1.39s-.31,1.13-.31,1.78v7.99Z"/>
      <path class="cls-1" d="M260.76,52.22v-2.81c-.29,.41-.61,.81-.96,1.19-.35,.38-.74,.71-1.17,1-.43,.29-.91,.51-1.44,.67-.53,.16-1.12,.24-1.77,.24-.85,0-1.67-.16-2.46-.49-.79-.32-1.5-.8-2.13-1.42s-1.13-1.38-1.51-2.28-.57-1.93-.57-3.08,.19-2.18,.57-3.08c.38-.9,.88-1.66,1.51-2.28s1.34-1.1,2.13-1.43c.79-.33,1.61-.5,2.46-.5,.65,0,1.24,.08,1.78,.24s1.03,.38,1.46,.65,.82,.58,1.17,.95c.35,.36,.66,.74,.93,1.13v-8.42h2.08v19.71h-2.08Zm-.34-9.2c-.28-.66-.66-1.23-1.13-1.69-.48-.47-1.02-.83-1.62-1.09-.6-.26-1.23-.39-1.88-.39-.68,0-1.32,.12-1.92,.36-.59,.24-1.11,.59-1.55,1.05s-.79,1.02-1.05,1.69c-.26,.67-.39,1.43-.39,2.27s.13,1.57,.39,2.23c.26,.66,.62,1.23,1.07,1.71,.45,.47,.97,.84,1.57,1.09,.59,.25,1.22,.38,1.89,.38s1.27-.13,1.88-.39c.6-.26,1.14-.62,1.62-1.09,.48-.47,.85-1.04,1.13-1.71,.28-.67,.42-1.41,.42-2.22s-.14-1.54-.42-2.2Z"/>
      <path class="cls-1" d="M269.56,52.22h-2.08v-13.96h2.08v2.43c.47-.76,1.08-1.4,1.84-1.93,.76-.53,1.74-.8,2.94-.8,.85,0,1.6,.13,2.25,.4,.66,.27,1.21,.65,1.67,1.15s.81,1.08,1.05,1.77c.24,.68,.36,1.44,.36,2.27v8.67h-2.08v-8.15c0-1.3-.33-2.32-1-3.08-.67-.76-1.62-1.13-2.86-1.13-.59,0-1.15,.1-1.66,.31-.51,.21-.96,.5-1.34,.89-.38,.39-.67,.85-.88,1.39s-.31,1.13-.31,1.78v7.99Z"/>
      <path class="cls-1" d="M285.92,48.02c.29,.59,.66,1.08,1.11,1.49s.95,.71,1.51,.92c.56,.21,1.14,.31,1.75,.31,.97,0,1.8-.18,2.5-.54,.69-.36,1.33-.84,1.9-1.43l1.3,1.16c-.7,.79-1.5,1.43-2.4,1.9-.9,.48-2.02,.72-3.35,.72-.95,0-1.85-.18-2.7-.53-.85-.35-1.59-.85-2.22-1.48-.63-.64-1.14-1.41-1.51-2.31-.37-.9-.56-1.89-.56-2.97,0-1.01,.17-1.96,.5-2.85,.33-.89,.8-1.67,1.39-2.32,.59-.66,1.3-1.17,2.12-1.55s1.71-.57,2.69-.57c1.03,0,1.94,.19,2.75,.58,.81,.39,1.49,.91,2.05,1.58,.56,.67,.98,1.45,1.27,2.35,.29,.9,.43,1.86,.43,2.89v.3c0,.11,0,.23-.03,.35h-11.04c.07,.76,.25,1.43,.54,2.01Zm8.4-3.55c-.05-.63-.18-1.23-.39-1.81s-.49-1.08-.86-1.51c-.37-.43-.81-.78-1.34-1.04-.53-.26-1.14-.39-1.84-.39-.61,0-1.17,.12-1.69,.37-.52,.24-.98,.58-1.37,1-.39,.42-.72,.92-.97,1.5-.25,.58-.41,1.21-.48,1.89h8.94Z"/>
      <path class="cls-1" d="M309.29,50.07c-.26,.51-.61,.95-1.05,1.31-.44,.36-.96,.63-1.57,.82-.6,.19-1.26,.28-1.96,.28-1.01,0-2.02-.18-3.05-.55-1.03-.37-1.94-.87-2.73-1.5l1.05-1.48c.76,.58,1.54,1.02,2.36,1.32,.82,.31,1.64,.46,2.47,.46s1.54-.2,2.08-.59c.54-.39,.81-.94,.81-1.62v-.05c0-.34-.09-.64-.28-.89s-.45-.47-.77-.66c-.32-.19-.7-.35-1.12-.5-.42-.14-.86-.28-1.31-.41-.54-.16-1.08-.34-1.63-.53-.55-.19-1.04-.43-1.48-.72-.44-.29-.8-.65-1.08-1.08-.28-.43-.42-.97-.42-1.62v-.05c0-.59,.12-1.14,.35-1.63,.23-.5,.56-.92,.99-1.27,.42-.35,.93-.62,1.51-.81,.58-.19,1.22-.28,1.9-.28,.86,0,1.74,.14,2.62,.42,.88,.28,1.68,.65,2.4,1.12l-.94,1.57c-.65-.41-1.33-.74-2.04-.99-.71-.24-1.41-.36-2.09-.36-.83,0-1.49,.19-1.97,.58-.49,.39-.73,.87-.73,1.45v.05c0,.32,.1,.61,.3,.85,.2,.24,.46,.46,.8,.63,.33,.18,.72,.34,1.15,.49,.43,.14,.88,.29,1.35,.43,.54,.16,1.08,.34,1.61,.54,.53,.2,1.01,.45,1.44,.76,.43,.31,.78,.68,1.04,1.11,.26,.43,.39,.96,.39,1.59v.05c0,.67-.13,1.26-.39,1.77Z"/>
      <path class="cls-1" d="M322.47,50.07c-.26,.51-.61,.95-1.05,1.31-.44,.36-.96,.63-1.57,.82-.6,.19-1.26,.28-1.96,.28-1.01,0-2.02-.18-3.05-.55-1.03-.37-1.94-.87-2.73-1.5l1.05-1.48c.76,.58,1.54,1.02,2.36,1.32,.82,.31,1.64,.46,2.47,.46s1.54-.2,2.08-.59c.54-.39,.81-.94,.81-1.62v-.05c0-.34-.09-.64-.28-.89s-.45-.47-.77-.66c-.32-.19-.7-.35-1.12-.5-.42-.14-.86-.28-1.31-.41-.54-.16-1.08-.34-1.63-.53-.55-.19-1.04-.43-1.48-.72-.44-.29-.8-.65-1.08-1.08-.28-.43-.42-.97-.42-1.62v-.05c0-.59,.12-1.14,.35-1.63,.23-.5,.56-.92,.99-1.27,.42-.35,.93-.62,1.51-.81,.58-.19,1.22-.28,1.9-.28,.86,0,1.74,.14,2.62,.42,.88,.28,1.68,.65,2.4,1.12l-.94,1.57c-.65-.41-1.33-.74-2.04-.99-.71-.24-1.41-.36-2.09-.36-.83,0-1.49,.19-1.97,.58-.49,.39-.73,.87-.73,1.45v.05c0,.32,.1,.61,.3,.85,.2,.24,.46,.46,.8,.63,.33,.18,.72,.34,1.15,.49,.43,.14,.88,.29,1.35,.43,.54,.16,1.08,.34,1.61,.54,.53,.2,1.01,.45,1.44,.76,.43,.31,.78,.68,1.04,1.11,.26,.43,.39,.96,.39,1.59v.05c0,.67-.13,1.26-.39,1.77Z"/>
      <path class="cls-1" d="M337.63,48.25c0,.86,.22,1.47,.65,1.81,.43,.34,1,.51,1.7,.51,.36,0,.7-.04,1.01-.11,.31-.07,.65-.2,1.01-.38v1.78c-.36,.2-.74,.35-1.15,.45-.4,.1-.86,.15-1.36,.15-.56,0-1.08-.07-1.57-.22-.49-.14-.9-.37-1.26-.69-.35-.31-.63-.72-.82-1.23-.2-.5-.3-1.11-.3-1.81v-8.42h-1.94v-1.84h1.94v-4.21h2.08v4.21h4.43v1.84h-4.43v8.15Z"/>
      <path class="cls-1" d="M347.81,52.22h-2.08v-19.71h2.08v8.18c.47-.76,1.08-1.4,1.84-1.93,.76-.53,1.74-.8,2.94-.8,.85,0,1.6,.13,2.25,.4,.66,.27,1.21,.65,1.67,1.15s.81,1.08,1.05,1.77c.24,.68,.36,1.44,.36,2.27v8.67h-2.08v-8.15c0-1.3-.33-2.32-1-3.08-.67-.76-1.62-1.13-2.86-1.13-.59,0-1.15,.1-1.66,.31-.51,.21-.96,.5-1.34,.89-.38,.39-.67,.85-.88,1.39s-.31,1.13-.31,1.78v7.99Z"/>
      <path class="cls-1" d="M364.17,48.02c.29,.59,.66,1.08,1.11,1.49s.95,.71,1.51,.92c.56,.21,1.14,.31,1.75,.31,.97,0,1.8-.18,2.5-.54,.69-.36,1.33-.84,1.9-1.43l1.3,1.16c-.7,.79-1.5,1.43-2.4,1.9-.9,.48-2.02,.72-3.35,.72-.95,0-1.85-.18-2.7-.53-.85-.35-1.59-.85-2.22-1.48-.63-.64-1.14-1.41-1.51-2.31-.37-.9-.56-1.89-.56-2.97,0-1.01,.17-1.96,.5-2.85,.33-.89,.8-1.67,1.39-2.32,.59-.66,1.3-1.17,2.12-1.55s1.71-.57,2.69-.57c1.03,0,1.94,.19,2.75,.58,.81,.39,1.49,.91,2.05,1.58,.56,.67,.98,1.45,1.27,2.35,.29,.9,.43,1.86,.43,2.89v.3c0,.11,0,.23-.03,.35h-11.04c.07,.76,.25,1.43,.54,2.01Zm8.4-3.55c-.05-.63-.18-1.23-.39-1.81s-.49-1.08-.86-1.51c-.37-.43-.81-.78-1.34-1.04-.53-.26-1.14-.39-1.84-.39-.61,0-1.17,.12-1.69,.37-.52,.24-.98,.58-1.37,1-.39,.42-.72,.92-.97,1.5-.25,.58-.41,1.21-.48,1.89h8.94Z"/>
      <path class="cls-1" d="M380.42,52.22h-2.08v-13.96h2.08v2.43c.47-.76,1.08-1.4,1.84-1.93,.76-.53,1.74-.8,2.94-.8,.85,0,1.6,.13,2.25,.4,.66,.27,1.21,.65,1.67,1.15s.81,1.08,1.05,1.77c.24,.68,.36,1.44,.36,2.27v8.67h-2.08v-8.15c0-1.3-.33-2.32-1-3.08-.67-.76-1.62-1.13-2.86-1.13-.59,0-1.15,.1-1.66,.31-.51,.21-.96,.5-1.34,.89-.38,.39-.67,.85-.88,1.39s-.31,1.13-.31,1.78v7.99Z"/>
      <path class="cls-1" d="M109.32,70.36h3.27l-.84,3.21c.79-1.13,1.66-2.02,2.62-2.66,.95-.64,2.07-.91,3.35-.82l-.92,3.46h-.19c-.72,0-1.41,.12-2.07,.35-.66,.23-1.26,.59-1.81,1.07-.55,.48-1.04,1.08-1.47,1.79-.43,.72-.78,1.58-1.05,2.56l-1.43,5.29h-3.27l3.81-14.26Z"/>
      <path class="cls-1" d="M120.8,78.68c.02,1.08,.34,1.95,.96,2.61s1.53,.99,2.74,.99c.68,0,1.31-.11,1.88-.34,.57-.22,1.16-.57,1.77-1.04l1.57,2.08c-.68,.56-1.47,1.03-2.35,1.4-.88,.38-1.94,.57-3.19,.57-.99,0-1.89-.14-2.69-.43-.8-.29-1.48-.7-2.04-1.24-.56-.54-.99-1.2-1.3-1.97-.31-.77-.46-1.64-.46-2.59,0-1.04,.2-2.08,.61-3.12,.41-1.03,.98-1.96,1.73-2.78,.75-.82,1.63-1.48,2.66-1.98s2.16-.76,3.4-.76c.92,0,1.73,.14,2.43,.43,.7,.29,1.3,.68,1.78,1.17,.49,.5,.85,1.08,1.11,1.76,.25,.67,.38,1.4,.38,2.17,0,.5-.05,1.01-.16,1.53s-.26,1.03-.46,1.55h-10.37Zm7.75-2.24c.09-.23,.13-.56,.13-.97,0-.74-.23-1.38-.67-1.92-.45-.54-1.17-.81-2.16-.81-1.12,0-2.09,.35-2.92,1.04s-1.42,1.58-1.78,2.66h7.4Z"/>
      <path class="cls-1" d="M136.67,73.17h-1.81l.76-2.81h1.81l.27-1.16c.41-1.53,1.08-2.65,1.98-3.36,.91-.71,2.06-1.07,3.44-1.07,.58,0,1.1,.04,1.57,.13,.47,.09,.88,.21,1.24,.35l-.73,2.73c-.68-.29-1.35-.43-2-.43-1.21,0-1.99,.67-2.35,2l-.22,.81h3.94l-.76,2.81h-3.89l-3.08,11.45h-3.27l3.08-11.45Z"/>
      <path class="cls-1" d="M147.34,70.36h3.27l-.84,3.21c.79-1.13,1.66-2.02,2.62-2.66,.95-.64,2.07-.91,3.35-.82l-.92,3.46h-.19c-.72,0-1.41,.12-2.07,.35-.66,.23-1.26,.59-1.81,1.07-.55,.48-1.04,1.08-1.47,1.79-.43,.72-.78,1.58-1.05,2.56l-1.43,5.29h-3.27l3.81-14.26Z"/>
      <path class="cls-1" d="M158.81,78.68c.02,1.08,.34,1.95,.96,2.61s1.53,.99,2.74,.99c.68,0,1.31-.11,1.88-.34,.57-.22,1.16-.57,1.77-1.04l1.57,2.08c-.68,.56-1.47,1.03-2.35,1.4-.88,.38-1.94,.57-3.19,.57-.99,0-1.89-.14-2.69-.43-.8-.29-1.48-.7-2.04-1.24-.56-.54-.99-1.2-1.3-1.97-.31-.77-.46-1.64-.46-2.59,0-1.04,.2-2.08,.61-3.12,.41-1.03,.98-1.96,1.73-2.78,.75-.82,1.63-1.48,2.66-1.98s2.16-.76,3.4-.76c.92,0,1.73,.14,2.43,.43,.7,.29,1.3,.68,1.78,1.17,.49,.5,.85,1.08,1.11,1.76,.25,.67,.38,1.4,.38,2.17,0,.5-.05,1.01-.16,1.53s-.26,1.03-.46,1.55h-10.37Zm7.75-2.24c.09-.23,.13-.56,.13-.97,0-.74-.23-1.38-.67-1.92-.45-.54-1.17-.81-2.16-.81-1.12,0-2.09,.35-2.92,1.04s-1.42,1.58-1.78,2.66h7.4Z"/>
      <path class="cls-1" d="M176.55,84.94c-1.08,0-2.19-.21-3.33-.63-1.14-.42-2.13-1.07-2.96-1.93l1.94-2c.76,.76,1.53,1.28,2.32,1.57,.79,.29,1.55,.43,2.27,.43,.65,0,1.19-.15,1.63-.46,.44-.3,.66-.72,.66-1.24,0-.36-.17-.67-.5-.93s-.86-.54-1.57-.85c-.59-.23-1.14-.48-1.64-.73s-.93-.54-1.29-.85c-.36-.31-.64-.67-.85-1.08-.21-.41-.31-.88-.31-1.42,0-.67,.13-1.29,.39-1.86,.26-.58,.63-1.08,1.12-1.5s1.07-.76,1.75-1c.68-.24,1.46-.36,2.32-.36,1.13,0,2.18,.2,3.15,.61,.96,.41,1.74,.87,2.34,1.39l-1.81,2.11c-1.31-1.04-2.61-1.57-3.9-1.57-.7,0-1.24,.15-1.61,.46-.38,.31-.56,.69-.56,1.16,0,.36,.17,.68,.52,.95,.35,.27,.93,.58,1.73,.92,.54,.23,1.04,.48,1.52,.73s.89,.53,1.24,.84c.35,.31,.63,.66,.83,1.05,.21,.4,.31,.86,.31,1.38,0,.74-.15,1.4-.44,2s-.69,1.1-1.21,1.53c-.52,.42-1.12,.75-1.82,.97s-1.45,.34-2.26,.34Z"/>
      <path class="cls-1" d="M189.56,64.91h3.27l-1.94,7.31c.58-.58,1.21-1.09,1.9-1.51s1.5-.64,2.42-.64c1.33,0,2.39,.38,3.17,1.15,.78,.77,1.17,1.8,1.17,3.12,0,.38-.05,.79-.14,1.23-.09,.44-.19,.87-.3,1.28l-2.05,7.78h-3.27l2.11-7.89c.07-.23,.13-.48,.16-.74,.04-.26,.05-.49,.05-.69,0-.72-.22-1.27-.65-1.66-.43-.39-1.04-.58-1.84-.58-.92,0-1.73,.33-2.43,.98-.7,.66-1.2,1.51-1.48,2.57l-2.16,8h-3.27l5.27-19.71Z"/>
      <path class="cls-1" d="M224.8,80.7c-.38,.9-.88,1.66-1.5,2.28-.62,.62-1.33,1.1-2.13,1.43-.8,.33-1.62,.5-2.47,.5-.65,0-1.24-.08-1.78-.24-.54-.16-1.03-.38-1.46-.65-.43-.27-.82-.58-1.17-.94-.35-.36-.66-.74-.93-1.13v6.99h-2.08v-18.28h2.08v2.81c.29-.41,.61-.81,.96-1.19,.35-.38,.74-.71,1.17-.99,.43-.28,.91-.5,1.44-.67,.53-.17,1.12-.26,1.77-.26,.83,0,1.64,.16,2.44,.49,.8,.32,1.52,.8,2.15,1.42,.63,.62,1.13,1.38,1.51,2.28s.57,1.93,.57,3.08-.19,2.18-.57,3.08Zm-1.96-5.28c-.26-.66-.62-1.23-1.07-1.71-.45-.47-.97-.84-1.57-1.09-.59-.25-1.22-.38-1.89-.38s-1.27,.13-1.88,.39c-.6,.26-1.14,.62-1.62,1.09-.48,.47-.85,1.03-1.13,1.69s-.42,1.4-.42,2.2,.14,1.54,.42,2.22,.66,1.24,1.13,1.71c.48,.46,1.02,.83,1.62,1.09,.6,.26,1.23,.39,1.88,.39s1.3-.12,1.9-.36,1.12-.59,1.57-1.05,.79-1.02,1.05-1.69c.26-.67,.39-1.43,.39-2.27s-.13-1.57-.39-2.23Z"/>
      <path class="cls-1" d="M231.99,72.59c-.68,.19-1.34,.44-1.98,.74l-.62-1.7c.77-.36,1.56-.64,2.35-.85s1.7-.31,2.73-.31c1.91,0,3.38,.47,4.4,1.42,1.03,.94,1.54,2.34,1.54,4.2v8.53h-2v-2.11c-.49,.63-1.14,1.19-1.96,1.67-.82,.49-1.85,.73-3.09,.73-.65,0-1.28-.09-1.9-.27-.62-.18-1.18-.45-1.67-.82s-.89-.82-1.19-1.36c-.3-.54-.45-1.18-.45-1.92s.14-1.39,.43-1.96c.29-.57,.7-1.04,1.23-1.42,.53-.38,1.16-.67,1.89-.86,.73-.2,1.53-.3,2.42-.3s1.68,.05,2.35,.16c.67,.11,1.31,.25,1.94,.43v-.49c0-1.26-.36-2.21-1.09-2.85s-1.75-.96-3.06-.96c-.83,0-1.58,.09-2.25,.28Zm-.67,5.74c-.7,.52-1.05,1.23-1.05,2.13,0,.45,.09,.85,.28,1.19s.44,.63,.77,.88c.32,.24,.69,.43,1.12,.55,.42,.12,.87,.19,1.33,.19,.65,0,1.25-.09,1.82-.28s1.06-.45,1.48-.78c.42-.33,.75-.73,1-1.19s.36-.97,.36-1.53v-1.35c-.52-.14-1.12-.28-1.79-.4-.67-.13-1.44-.19-2.3-.19-1.31,0-2.31,.26-3.01,.78Z"/>
      <path class="cls-1" d="M257.62,85.16c-.33,.85-.81,1.55-1.43,2.12-.62,.57-1.37,.99-2.24,1.28-.87,.29-1.85,.43-2.93,.43-1.17,0-2.29-.16-3.35-.49-1.06-.32-2.06-.81-3-1.46l.94-1.62c.81,.58,1.66,1.02,2.54,1.32,.88,.31,1.83,.46,2.83,.46,1.55,0,2.78-.42,3.7-1.26,.92-.84,1.38-2.07,1.38-3.71v-1.65c-.61,.81-1.36,1.5-2.24,2.08-.88,.58-1.96,.86-3.24,.86-.85,0-1.66-.15-2.44-.45-.78-.3-1.48-.73-2.09-1.3-.61-.57-1.1-1.26-1.47-2.07-.37-.81-.55-1.73-.55-2.75s.18-1.95,.55-2.77c.37-.82,.86-1.51,1.47-2.08,.61-.57,1.31-1,2.11-1.31,.79-.31,1.6-.46,2.43-.46,.65,0,1.25,.08,1.8,.23,.55,.15,1.04,.36,1.48,.61,.44,.25,.84,.55,1.2,.89,.36,.34,.68,.7,.97,1.08v-2.51h2.08v11.53c0,1.13-.17,2.12-.5,2.97Zm-1.93-10.17c-.29-.58-.67-1.08-1.15-1.5s-1.02-.73-1.63-.96c-.61-.22-1.25-.34-1.92-.34s-1.29,.11-1.88,.32c-.58,.22-1.1,.53-1.54,.95-.44,.41-.79,.91-1.04,1.5-.25,.58-.38,1.24-.38,1.96s.13,1.37,.39,1.96c.26,.59,.61,1.09,1.05,1.51,.44,.42,.95,.75,1.54,.97s1.2,.34,1.85,.34,1.3-.11,1.92-.34c.61-.22,1.16-.54,1.63-.96s.86-.91,1.15-1.5,.43-1.24,.43-1.96-.14-1.37-.43-1.96Z"/>
      <path class="cls-1" d="M264.57,80.42c.29,.59,.66,1.08,1.11,1.49s.95,.71,1.51,.92c.56,.21,1.14,.31,1.75,.31,.97,0,1.8-.18,2.5-.54,.69-.36,1.33-.84,1.9-1.43l1.3,1.16c-.7,.79-1.5,1.43-2.4,1.9-.9,.48-2.02,.72-3.35,.72-.95,0-1.85-.18-2.7-.53-.85-.35-1.59-.85-2.22-1.48-.63-.64-1.14-1.41-1.51-2.31-.37-.9-.56-1.89-.56-2.97,0-1.01,.17-1.96,.5-2.85,.33-.89,.8-1.67,1.39-2.32,.59-.66,1.3-1.17,2.12-1.55s1.71-.57,2.69-.57c1.03,0,1.94,.19,2.75,.58,.81,.39,1.49,.91,2.05,1.58,.56,.67,.98,1.45,1.27,2.35,.29,.9,.43,1.86,.43,2.89v.3c0,.11,0,.23-.03,.35h-11.04c.07,.76,.25,1.43,.54,2.01Zm8.4-3.55c-.05-.63-.18-1.23-.39-1.81s-.49-1.08-.86-1.51c-.37-.43-.81-.78-1.34-1.04-.53-.26-1.14-.39-1.84-.39-.61,0-1.17,.12-1.69,.37-.52,.24-.98,.58-1.37,1-.39,.42-.72,.92-.97,1.5-.25,.58-.41,1.21-.48,1.89h8.94Z"/>
      <path class="cls-1" d="M289.65,80.65c0,.86,.22,1.47,.65,1.81,.43,.34,1,.51,1.7,.51,.36,0,.7-.04,1.01-.11,.31-.07,.65-.2,1.01-.38v1.78c-.36,.2-.74,.35-1.15,.45-.4,.1-.86,.15-1.36,.15-.56,0-1.08-.07-1.57-.22-.49-.14-.9-.37-1.26-.69-.35-.31-.63-.72-.82-1.23-.2-.5-.3-1.11-.3-1.81v-8.42h-1.94v-1.84h1.94v-4.21h2.08v4.21h4.43v1.84h-4.43v8.15Z"/>
      <path class="cls-1" d="M310.48,80.45c-.37,.89-.88,1.67-1.53,2.34s-1.42,1.19-2.32,1.58c-.9,.39-1.87,.58-2.92,.58s-2.01-.19-2.89-.58c-.88-.39-1.65-.91-2.3-1.57-.65-.66-1.15-1.43-1.51-2.31-.36-.88-.54-1.82-.54-2.81s.18-1.93,.54-2.82c.36-.89,.86-1.67,1.51-2.33,.65-.67,1.42-1.19,2.31-1.58,.89-.39,1.87-.58,2.93-.58s2.01,.19,2.9,.58,1.66,.91,2.31,1.57c.65,.66,1.15,1.43,1.51,2.31,.36,.88,.54,1.82,.54,2.81s-.19,1.93-.55,2.82Zm-1.97-4.91c-.26-.66-.63-1.24-1.09-1.74-.47-.49-1.02-.88-1.65-1.17-.63-.29-1.31-.43-2.05-.43s-1.45,.14-2.08,.42c-.63,.28-1.17,.67-1.61,1.16s-.79,1.07-1.04,1.72c-.25,.66-.38,1.36-.38,2.11s.13,1.46,.39,2.13c.26,.66,.62,1.24,1.08,1.72s1,.87,1.63,1.16c.63,.29,1.31,.43,2.05,.43s1.45-.14,2.08-.42c.63-.28,1.17-.66,1.62-1.14,.45-.48,.8-1.05,1.05-1.71,.25-.66,.38-1.36,.38-2.11s-.13-1.46-.39-2.13Z"/>
      <path class="cls-1" d="M332.08,82.47c-.26,.51-.61,.95-1.05,1.31-.44,.36-.96,.63-1.57,.82-.6,.19-1.26,.28-1.96,.28-1.01,0-2.02-.18-3.05-.55-1.03-.37-1.94-.87-2.73-1.5l1.05-1.48c.76,.58,1.54,1.02,2.36,1.32,.82,.31,1.64,.46,2.47,.46s1.54-.2,2.08-.59c.54-.39,.81-.94,.81-1.62v-.05c0-.34-.09-.64-.28-.89s-.45-.47-.77-.66c-.32-.19-.7-.35-1.12-.5-.42-.14-.86-.28-1.31-.41-.54-.16-1.08-.34-1.63-.53-.55-.19-1.04-.43-1.48-.72-.44-.29-.8-.65-1.08-1.08-.28-.43-.42-.97-.42-1.62v-.05c0-.59,.12-1.14,.35-1.63,.23-.5,.56-.92,.99-1.27,.42-.35,.93-.62,1.51-.81,.58-.19,1.22-.28,1.9-.28,.86,0,1.74,.14,2.62,.42,.88,.28,1.68,.65,2.4,1.12l-.94,1.57c-.65-.41-1.33-.74-2.04-.99-.71-.24-1.41-.36-2.09-.36-.83,0-1.49,.19-1.97,.58-.49,.39-.73,.87-.73,1.45v.05c0,.32,.1,.61,.3,.85,.2,.24,.46,.46,.8,.63,.33,.18,.72,.34,1.15,.49,.43,.14,.88,.29,1.35,.43,.54,.16,1.08,.34,1.61,.54,.53,.2,1.01,.45,1.44,.76,.43,.31,.78,.68,1.04,1.11,.26,.43,.39,.96,.39,1.59v.05c0,.67-.13,1.26-.39,1.77Z"/>
      <path class="cls-1" d="M338.14,80.42c.29,.59,.66,1.08,1.11,1.49s.95,.71,1.51,.92c.56,.21,1.14,.31,1.75,.31,.97,0,1.8-.18,2.5-.54,.69-.36,1.33-.84,1.9-1.43l1.3,1.16c-.7,.79-1.5,1.43-2.4,1.9-.9,.48-2.02,.72-3.35,.72-.95,0-1.85-.18-2.7-.53-.85-.35-1.59-.85-2.22-1.48-.63-.64-1.14-1.41-1.51-2.31-.37-.9-.56-1.89-.56-2.97,0-1.01,.17-1.96,.5-2.85,.33-.89,.8-1.67,1.39-2.32,.59-.66,1.3-1.17,2.12-1.55s1.71-.57,2.69-.57c1.03,0,1.94,.19,2.75,.58,.81,.39,1.49,.91,2.05,1.58,.56,.67,.98,1.45,1.27,2.35,.29,.9,.43,1.86,.43,2.89v.3c0,.11,0,.23-.03,.35h-11.04c.07,.76,.25,1.43,.54,2.01Zm8.4-3.55c-.05-.63-.18-1.23-.39-1.81s-.49-1.08-.86-1.51c-.37-.43-.81-.78-1.34-1.04-.53-.26-1.14-.39-1.84-.39-.61,0-1.17,.12-1.69,.37-.52,.24-.98,.58-1.37,1-.39,.42-.72,.92-.97,1.5-.25,.58-.41,1.21-.48,1.89h8.94Z"/>
      <path class="cls-1" d="M354.13,80.42c.29,.59,.66,1.08,1.11,1.49s.95,.71,1.51,.92c.56,.21,1.14,.31,1.75,.31,.97,0,1.8-.18,2.5-.54,.69-.36,1.33-.84,1.9-1.43l1.3,1.16c-.7,.79-1.5,1.43-2.4,1.9-.9,.48-2.02,.72-3.35,.72-.95,0-1.85-.18-2.7-.53-.85-.35-1.59-.85-2.22-1.48-.63-.64-1.14-1.41-1.51-2.31-.37-.9-.56-1.89-.56-2.97,0-1.01,.17-1.96,.5-2.85,.33-.89,.8-1.67,1.39-2.32,.59-.66,1.3-1.17,2.12-1.55s1.71-.57,2.69-.57c1.03,0,1.94,.19,2.75,.58,.81,.39,1.49,.91,2.05,1.58,.56,.67,.98,1.45,1.27,2.35,.29,.9,.43,1.86,.43,2.89v.3c0,.11,0,.23-.03,.35h-11.04c.07,.76,.25,1.43,.54,2.01Zm8.4-3.55c-.05-.63-.18-1.23-.39-1.81s-.49-1.08-.86-1.51c-.37-.43-.81-.78-1.34-1.04-.53-.26-1.14-.39-1.84-.39-.61,0-1.17,.12-1.69,.37-.52,.24-.98,.58-1.37,1-.39,.42-.72,.92-.97,1.5-.25,.58-.41,1.21-.48,1.89h8.94Z"/>
      <path class="cls-1" d="M386,84.18c-.89,.51-1.99,.77-3.31,.77-1.03,0-1.98-.19-2.85-.58-.87-.39-1.63-.91-2.27-1.57-.64-.66-1.14-1.43-1.5-2.31-.36-.88-.54-1.82-.54-2.81s.18-1.93,.54-2.82c.36-.89,.86-1.67,1.5-2.33,.64-.67,1.39-1.19,2.27-1.58,.87-.39,1.82-.58,2.85-.58,.67,0,1.27,.06,1.81,.19s1.04,.3,1.49,.53c.45,.22,.86,.49,1.24,.8s.73,.63,1.05,.97l-1.38,1.46c-.56-.58-1.17-1.07-1.82-1.48-.66-.41-1.46-.62-2.42-.62-.7,0-1.36,.14-1.97,.42-.61,.28-1.14,.67-1.59,1.16-.45,.49-.8,1.07-1.05,1.72-.25,.66-.38,1.36-.38,2.11s.13,1.46,.39,2.13c.26,.66,.62,1.24,1.08,1.74s1,.88,1.62,1.16c.62,.28,1.3,.42,2.04,.42,.9,0,1.7-.2,2.39-.59s1.32-.89,1.88-1.49l1.32,1.24c-.7,.8-1.5,1.45-2.39,1.96Z"/>
      <path class="cls-1" d="M393.9,84.62h-2.08v-19.71h2.08v8.18c.47-.76,1.08-1.4,1.84-1.93,.76-.53,1.74-.8,2.94-.8,.85,0,1.6,.13,2.25,.4,.66,.27,1.21,.65,1.67,1.15s.81,1.08,1.05,1.77c.24,.68,.36,1.44,.36,2.27v8.67h-2.08v-8.15c0-1.3-.33-2.32-1-3.08-.67-.76-1.62-1.13-2.86-1.13-.59,0-1.15,.1-1.66,.31-.51,.21-.96,.5-1.34,.89-.38,.39-.67,.85-.88,1.39s-.31,1.13-.31,1.78v7.99Z"/>
      <path class="cls-1" d="M411.24,72.59c-.68,.19-1.34,.44-1.98,.74l-.62-1.7c.77-.36,1.56-.64,2.35-.85s1.7-.31,2.73-.31c1.91,0,3.38,.47,4.4,1.42,1.03,.94,1.54,2.34,1.54,4.2v8.53h-2v-2.11c-.49,.63-1.14,1.19-1.96,1.67-.82,.49-1.85,.73-3.09,.73-.65,0-1.28-.09-1.9-.27-.62-.18-1.18-.45-1.67-.82s-.89-.82-1.19-1.36c-.3-.54-.45-1.18-.45-1.92s.14-1.39,.43-1.96c.29-.57,.7-1.04,1.23-1.42,.53-.38,1.16-.67,1.89-.86,.73-.2,1.53-.3,2.42-.3s1.68,.05,2.35,.16c.67,.11,1.31,.25,1.94,.43v-.49c0-1.26-.36-2.21-1.09-2.85s-1.75-.96-3.06-.96c-.83,0-1.58,.09-2.25,.28Zm-.67,5.74c-.7,.52-1.05,1.23-1.05,2.13,0,.45,.09,.85,.28,1.19s.44,.63,.77,.88c.32,.24,.69,.43,1.12,.55,.42,.12,.87,.19,1.33,.19,.65,0,1.25-.09,1.82-.28s1.06-.45,1.48-.78c.42-.33,.75-.73,1-1.19s.36-.97,.36-1.53v-1.35c-.52-.14-1.12-.28-1.79-.4-.67-.13-1.44-.19-2.3-.19-1.31,0-2.31,.26-3.01,.78Z"/>
      <path class="cls-1" d="M426.16,84.62h-2.08v-13.96h2.08v2.43c.47-.76,1.08-1.4,1.84-1.93,.76-.53,1.74-.8,2.94-.8,.85,0,1.6,.13,2.25,.4,.66,.27,1.21,.65,1.67,1.15s.81,1.08,1.05,1.77c.24,.68,.36,1.44,.36,2.27v8.67h-2.08v-8.15c0-1.3-.33-2.32-1-3.08-.67-.76-1.62-1.13-2.86-1.13-.59,0-1.15,.1-1.66,.31-.51,.21-.96,.5-1.34,.89-.38,.39-.67,.85-.88,1.39s-.31,1.13-.31,1.78v7.99Z"/>
      <path class="cls-1" d="M453.5,85.16c-.33,.85-.81,1.55-1.43,2.12-.62,.57-1.37,.99-2.24,1.28-.87,.29-1.85,.43-2.93,.43-1.17,0-2.29-.16-3.35-.49-1.06-.32-2.06-.81-3-1.46l.94-1.62c.81,.58,1.66,1.02,2.54,1.32,.88,.31,1.83,.46,2.83,.46,1.55,0,2.78-.42,3.7-1.26,.92-.84,1.38-2.07,1.38-3.71v-1.65c-.61,.81-1.36,1.5-2.24,2.08-.88,.58-1.96,.86-3.24,.86-.85,0-1.66-.15-2.44-.45-.78-.3-1.48-.73-2.09-1.3-.61-.57-1.1-1.26-1.47-2.07-.37-.81-.55-1.73-.55-2.75s.18-1.95,.55-2.77c.37-.82,.86-1.51,1.47-2.08,.61-.57,1.31-1,2.11-1.31,.79-.31,1.6-.46,2.43-.46,.65,0,1.25,.08,1.8,.23,.55,.15,1.04,.36,1.48,.61,.44,.25,.84,.55,1.2,.89,.36,.34,.68,.7,.97,1.08v-2.51h2.08v11.53c0,1.13-.17,2.12-.5,2.97Zm-1.93-10.17c-.29-.58-.67-1.08-1.15-1.5s-1.02-.73-1.63-.96c-.61-.22-1.25-.34-1.92-.34s-1.29,.11-1.88,.32c-.58,.22-1.1,.53-1.54,.95-.44,.41-.79,.91-1.04,1.5-.25,.58-.38,1.24-.38,1.96s.13,1.37,.39,1.96c.26,.59,.61,1.09,1.05,1.51,.44,.42,.95,.75,1.54,.97s1.2,.34,1.85,.34,1.3-.11,1.92-.34c.61-.22,1.16-.54,1.63-.96s.86-.91,1.15-1.5,.43-1.24,.43-1.96-.14-1.37-.43-1.96Z"/>
      <path class="cls-1" d="M460.45,80.42c.29,.59,.66,1.08,1.11,1.49s.95,.71,1.51,.92c.56,.21,1.14,.31,1.75,.31,.97,0,1.8-.18,2.5-.54,.69-.36,1.33-.84,1.9-1.43l1.3,1.16c-.7,.79-1.5,1.43-2.4,1.9-.9,.48-2.02,.72-3.35,.72-.95,0-1.85-.18-2.7-.53-.85-.35-1.59-.85-2.22-1.48-.63-.64-1.14-1.41-1.51-2.31-.37-.9-.56-1.89-.56-2.97,0-1.01,.17-1.96,.5-2.85,.33-.89,.8-1.67,1.39-2.32,.59-.66,1.3-1.17,2.12-1.55s1.71-.57,2.69-.57c1.03,0,1.94,.19,2.75,.58,.81,.39,1.49,.91,2.05,1.58,.56,.67,.98,1.45,1.27,2.35,.29,.9,.43,1.86,.43,2.89v.3c0,.11,0,.23-.03,.35h-11.04c.07,.76,.25,1.43,.54,2.01Zm8.4-3.55c-.05-.63-.18-1.23-.39-1.81s-.49-1.08-.86-1.51c-.37-.43-.81-.78-1.34-1.04-.53-.26-1.14-.39-1.84-.39-.61,0-1.17,.12-1.69,.37-.52,.24-.98,.58-1.37,1-.39,.42-.72,.92-.97,1.5-.25,.58-.41,1.21-.48,1.89h8.94Z"/>
      <path class="cls-1" d="M483.82,82.47c-.26,.51-.61,.95-1.05,1.31-.44,.36-.96,.63-1.57,.82-.6,.19-1.26,.28-1.96,.28-1.01,0-2.02-.18-3.05-.55-1.03-.37-1.94-.87-2.73-1.5l1.05-1.48c.76,.58,1.54,1.02,2.36,1.32,.82,.31,1.64,.46,2.47,.46s1.54-.2,2.08-.59c.54-.39,.81-.94,.81-1.62v-.05c0-.34-.09-.64-.28-.89s-.45-.47-.77-.66c-.32-.19-.7-.35-1.12-.5-.42-.14-.86-.28-1.31-.41-.54-.16-1.08-.34-1.63-.53-.55-.19-1.04-.43-1.48-.72-.44-.29-.8-.65-1.08-1.08-.28-.43-.42-.97-.42-1.62v-.05c0-.59,.12-1.14,.35-1.63,.23-.5,.56-.92,.99-1.27,.42-.35,.93-.62,1.51-.81,.58-.19,1.22-.28,1.9-.28,.86,0,1.74,.14,2.62,.42,.88,.28,1.68,.65,2.4,1.12l-.94,1.57c-.65-.41-1.33-.74-2.04-.99-.71-.24-1.41-.36-2.09-.36-.83,0-1.49,.19-1.97,.58-.49,.39-.73,.87-.73,1.45v.05c0,.32,.1,.61,.3,.85,.2,.24,.46,.46,.8,.63,.33,.18,.72,.34,1.15,.49,.43,.14,.88,.29,1.35,.43,.54,.16,1.08,.34,1.61,.54,.53,.2,1.01,.45,1.44,.76,.43,.31,.78,.68,1.04,1.11,.26,.43,.39,.96,.39,1.59v.05c0,.67-.13,1.26-.39,1.77Z"/>
    </g>
  </g>
</svg>