<?xml version="1.0" encoding="UTF-8"?>
<svg id="Layer_2" data-name="Layer 2" xmlns="http://www.w3.org/2000/svg" xmlns:xlink="http://www.w3.org/1999/xlink" viewBox="0 0 192.37 27.74">
  <defs>
    <style>
      .cls-1 {
        fill: url(#linear-gradient);
      }

      .cls-2 {
        fill: url(#linear-gradient-3);
      }

      .cls-3 {
        fill: url(#linear-gradient-4);
      }

      .cls-4 {
        fill: url(#linear-gradient-2);
      }

      .cls-5 {
        fill: url(#linear-gradient-6);
      }

      .cls-6 {
        fill: url(#linear-gradient-5);
      }
    </style>
    <linearGradient id="linear-gradient" x1="18.46" y1="9.23" x2="18.46" y2="27.69" gradientTransform="translate(0 36.92) rotate(-90)" gradientUnits="userSpaceOnUse">
      <stop offset="0" stop-color="#9832b3"/>
      <stop offset="1" stop-color="#6032c2"/>
    </linearGradient>
    <linearGradient id="linear-gradient-2" x1="103.28" y1=".67" x2="103.28" y2="27.74" gradientTransform="matrix(1, 0, 0, 1, 0, 0)" xlink:href="#linear-gradient"/>
    <linearGradient id="linear-gradient-3" x1="129.23" y1="6.88" x2="129.23" y2="27.74" gradientTransform="matrix(1, 0, 0, 1, 0, 0)" xlink:href="#linear-gradient"/>
    <linearGradient id="linear-gradient-4" x1="147.28" y1="0" x2="147.28" y2="27.29" gradientTransform="matrix(1, 0, 0, 1, 0, 0)" xlink:href="#linear-gradient"/>
    <linearGradient id="linear-gradient-5" x1="165.34" y1="6.88" x2="165.34" y2="27.74" gradientTransform="matrix(1, 0, 0, 1, 0, 0)" xlink:href="#linear-gradient"/>
    <linearGradient id="linear-gradient-6" x1="186.33" y1="6.87" x2="186.33" y2="27.29" gradientTransform="matrix(1, 0, 0, 1, 0, 0)" xlink:href="#linear-gradient"/>
  </defs>
  <g id="Layer_1-2" data-name="Layer 1">
    <g>
      <g>
        <rect class="cls-1" x="9.23" y="9.23" width="18.46" height="18.46" transform="translate(36.92 0) rotate(90)"/>
        <rect x="0" y="0" width="18.46" height="18.46" transform="translate(18.46 0) rotate(90)"/>
      </g>
      <g>
        <path d="M64.23,18.54c-.01,.2-.03,.44-.06,.71h-13.94c.27,1.3,.84,2.27,1.7,2.93,.86,.66,1.93,.99,3.2,.99,.95,0,1.79-.16,2.54-.49,.75-.32,1.52-.85,2.32-1.57l3.25,2.88c-.95,1.17-2.09,2.09-3.44,2.75-1.35,.66-2.93,.99-4.75,.99-1.5,0-2.89-.25-4.17-.75-1.28-.5-2.39-1.21-3.33-2.13-.93-.92-1.66-2.01-2.19-3.27s-.78-2.66-.78-4.21v-.07c0-1.42,.24-2.77,.73-4.04,.49-1.27,1.16-2.38,2.04-3.33,.87-.95,1.91-1.69,3.12-2.24,1.21-.55,2.55-.82,4.02-.82,1.67,0,3.12,.3,4.34,.9,1.22,.6,2.24,1.4,3.05,2.41,.81,1.01,1.41,2.17,1.79,3.48,.39,1.31,.58,2.67,.58,4.09v.07c0,.27,0,.51-.02,.71Zm-6.86-5.93c-.72-.79-1.68-1.18-2.88-1.18s-2.16,.39-2.9,1.16c-.74,.77-1.22,1.81-1.44,3.1h8.56c-.17-1.27-.62-2.3-1.35-3.08Z"/>
        <path d="M81.15,27.29v-11.15c0-1.34-.3-2.36-.9-3.04s-1.45-1.03-2.54-1.03-1.96,.34-2.6,1.03-.95,1.7-.95,3.04v11.15h-5.68V7.25h5.68v2.86c.32-.43,.68-.83,1.07-1.22,.39-.39,.82-.73,1.29-1.03,.47-.3,1-.54,1.57-.72,.57-.18,1.22-.26,1.94-.26,2.17,0,3.84,.66,5.03,1.98,1.18,1.32,1.78,3.14,1.78,5.46v12.97h-5.68Z"/>
        <g>
          <path class="cls-4" d="M113.26,25.01c-.72,.57-1.51,1.07-2.37,1.48-.86,.41-1.8,.72-2.82,.93-1.02,.21-2.17,.32-3.44,.32-1.92,0-3.7-.35-5.35-1.05s-3.07-1.65-4.26-2.86c-1.2-1.21-2.13-2.64-2.8-4.28-.67-1.65-1.01-3.4-1.01-5.27v-.07c0-1.87,.34-3.62,1.01-5.25,.67-1.63,1.61-3.07,2.8-4.3,1.2-1.23,2.63-2.21,4.3-2.92s3.51-1.07,5.53-1.07c1.22,0,2.34,.1,3.35,.3,1.01,.2,1.93,.47,2.75,.82,.82,.35,1.58,.77,2.28,1.27,.7,.5,1.35,1.05,1.94,1.65l-3.66,4.22c-1.02-.92-2.06-1.64-3.12-2.17-1.06-.52-2.25-.79-3.57-.79-1.1,0-2.11,.21-3.05,.64-.93,.42-1.74,1.01-2.41,1.76s-1.2,1.61-1.57,2.6c-.37,.98-.56,2.04-.56,3.16v.07c0,1.12,.19,2.18,.56,3.18s.89,1.87,1.55,2.62c.66,.75,1.46,1.34,2.39,1.78,.93,.44,1.96,.65,3.08,.65,1.5,0,2.76-.27,3.79-.82,1.03-.55,2.06-1.3,3.08-2.24l3.66,3.7c-.67,.72-1.37,1.37-2.09,1.94Z"/>
          <path class="cls-2" d="M139.25,21.37c-.55,1.26-1.31,2.36-2.28,3.31-.97,.95-2.12,1.7-3.44,2.24-1.32,.55-2.77,.82-4.34,.82s-2.98-.27-4.3-.8c-1.32-.54-2.46-1.27-3.42-2.21-.96-.93-1.71-2.03-2.26-3.29-.55-1.26-.82-2.61-.82-4.06v-.07c0-1.45,.27-2.8,.82-4.06,.55-1.26,1.31-2.36,2.28-3.31,.97-.95,2.12-1.69,3.44-2.24,1.32-.55,2.77-.82,4.34-.82s2.98,.27,4.3,.8c1.32,.54,2.46,1.27,3.42,2.21,.96,.93,1.71,2.03,2.26,3.29,.55,1.26,.82,2.61,.82,4.06v.07c0,1.45-.27,2.8-.82,4.06Zm-4.79-4.06c0-.75-.12-1.45-.37-2.11-.25-.66-.61-1.25-1.08-1.76-.47-.51-1.03-.92-1.68-1.22-.65-.3-1.36-.45-2.13-.45-.82,0-1.55,.14-2.19,.43-.64,.29-1.18,.68-1.63,1.18-.45,.5-.79,1.08-1.03,1.74-.24,.66-.36,1.36-.36,2.11v.07c0,.75,.12,1.45,.37,2.11,.25,.66,.61,1.25,1.08,1.76,.47,.51,1.03,.92,1.66,1.22,.64,.3,1.35,.45,2.15,.45s1.55-.14,2.19-.43c.64-.29,1.18-.68,1.63-1.18,.45-.5,.79-1.08,1.03-1.74,.24-.66,.36-1.36,.36-2.11v-.07Z"/>
          <path class="cls-3" d="M144.44,27.29V0h5.68V27.29h-5.68Z"/>
          <path class="cls-6" d="M175.36,21.37c-.55,1.26-1.31,2.36-2.28,3.31-.97,.95-2.12,1.7-3.44,2.24-1.32,.55-2.77,.82-4.34,.82s-2.98-.27-4.3-.8c-1.32-.54-2.46-1.27-3.42-2.21-.96-.93-1.71-2.03-2.26-3.29-.55-1.26-.82-2.61-.82-4.06v-.07c0-1.45,.27-2.8,.82-4.06,.55-1.26,1.31-2.36,2.28-3.31,.97-.95,2.12-1.69,3.44-2.24,1.32-.55,2.77-.82,4.34-.82s2.98,.27,4.3,.8c1.32,.54,2.46,1.27,3.42,2.21,.96,.93,1.71,2.03,2.26,3.29,.55,1.26,.82,2.61,.82,4.06v.07c0,1.45-.27,2.8-.82,4.06Zm-4.79-4.06c0-.75-.12-1.45-.37-2.11-.25-.66-.61-1.25-1.08-1.76-.47-.51-1.03-.92-1.68-1.22-.65-.3-1.36-.45-2.13-.45-.82,0-1.55,.14-2.19,.43-.64,.29-1.18,.68-1.63,1.18-.45,.5-.79,1.08-1.03,1.74-.24,.66-.36,1.36-.36,2.11v.07c0,.75,.12,1.45,.37,2.11,.25,.66,.61,1.25,1.08,1.76,.47,.51,1.03,.92,1.66,1.22,.64,.3,1.35,.45,2.15,.45s1.55-.14,2.19-.43c.64-.29,1.18-.68,1.63-1.18,.45-.5,.79-1.08,1.03-1.74,.24-.66,.36-1.36,.36-2.11v-.07Z"/>
          <path class="cls-5" d="M192.07,12.82c-1.89,0-3.38,.57-4.47,1.72-1.08,1.15-1.63,2.93-1.63,5.35v7.4h-5.68V7.25h5.68v4.04c.57-1.37,1.36-2.47,2.36-3.29s2.34-1.2,4.04-1.12v5.94h-.3Z"/>
        </g>
      </g>
    </g>
  </g>
</svg>