<?xml version="1.0" encoding="UTF-8"?>
<svg id="Layer_2" data-name="Layer 2" xmlns="http://www.w3.org/2000/svg" xmlns:xlink="http://www.w3.org/1999/xlink" viewBox="0 0 499 95">
  <defs>
    <style>
      .cls-1 {
        fill: #fff;
      }

      .cls-2 {
        fill: url(#linear-gradient);
        filter: url(#outer-glow-1);
      }
    </style>
    <linearGradient id="linear-gradient" x1="249.51" y1="9.17" x2="249.51" y2="85.95" gradientUnits="userSpaceOnUse">
      <stop offset="0" stop-color="#9832b3"/>
      <stop offset="1" stop-color="#6032c2"/>
    </linearGradient>
    <filter id="outer-glow-1" filterUnits="userSpaceOnUse">
      <feOffset dx="0" dy="0"/>
      <feGaussianBlur result="blur" stdDeviation="3"/>
      <feFlood flood-color="#6032c4" flood-opacity=".2"/>
      <feComposite in2="blur" operator="in"/>
      <feComposite in="SourceGraphic"/>
    </filter>
  </defs>
  <g id="Layer_1-2" data-name="Layer 1">
    <g>
      <rect class="cls-2" x="9.27" y="9.17" width="480.48" height="76.79" rx="10" ry="10"/>
      <g>
        <path class="cls-1" d="M152.43,56.29l-9.02-11.85v11.85h-4.05v-18.64h3.78l8.73,11.47v-11.47h4.05v18.64h-3.49Z"/>
        <path class="cls-1" d="M178.63,50.71c-.5,1.16-1.18,2.18-2.06,3.06s-1.93,1.57-3.14,2.08c-1.22,.51-2.54,.76-3.98,.76s-2.76-.25-3.97-.76c-1.21-.51-2.25-1.19-3.13-2.05-.88-.86-1.56-1.87-2.05-3.03-.49-1.16-.73-2.41-.73-3.74v-.05c0-1.33,.25-2.58,.75-3.74s1.19-2.18,2.06-3.06c.88-.88,1.93-1.57,3.14-2.08s2.54-.76,3.98-.76,2.76,.25,3.97,.76,2.25,1.19,3.13,2.05c.88,.86,1.56,1.87,2.05,3.04,.49,1.16,.73,2.41,.73,3.74v.05c0,1.33-.25,2.58-.75,3.74Zm-3.54-3.74c0-.8-.14-1.55-.41-2.26-.28-.71-.67-1.33-1.17-1.86-.51-.53-1.1-.95-1.8-1.26-.69-.31-1.45-.47-2.26-.47s-1.59,.15-2.28,.45c-.68,.3-1.27,.72-1.76,1.25-.49,.53-.87,1.15-1.14,1.85-.28,.7-.41,1.45-.41,2.25v.05c0,.8,.14,1.55,.41,2.26,.27,.71,.67,1.33,1.17,1.86,.51,.53,1.1,.95,1.78,1.26,.68,.31,1.44,.47,2.28,.47s1.57-.15,2.26-.45c.69-.3,1.28-.72,1.77-1.25,.49-.53,.87-1.15,1.14-1.85,.27-.7,.41-1.45,.41-2.25v-.05Z"/>
        <path class="cls-1" d="M194.33,56.29l-3.99-5.96h-3.22v5.96h-4.1v-18.64h8.52c2.22,0,3.94,.54,5.18,1.62,1.23,1.08,1.85,2.59,1.85,4.53v.05c0,1.51-.37,2.74-1.1,3.69-.74,.95-1.7,1.65-2.89,2.09l4.55,6.66h-4.79Zm.08-12.27c0-.89-.28-1.55-.85-2-.57-.44-1.36-.67-2.37-.67h-4.07v5.35h4.15c1.01,0,1.79-.24,2.33-.72,.54-.48,.81-1.12,.81-1.92v-.05Z"/>
        <path class="cls-1" d="M216.86,56.29v-12.17l-5.24,7.96h-.11l-5.19-7.88v12.09h-4.05v-18.64h4.42l4.9,7.88,4.9-7.88h4.42v18.64h-4.05Z"/>
        <path class="cls-1" d="M239.25,56.29l-1.7-4.18h-7.88l-1.7,4.18h-4.18l7.99-18.77h3.78l7.99,18.77h-4.29Zm-5.64-13.84l-2.48,6.04h4.95l-2.48-6.04Z"/>
        <path class="cls-1" d="M246.41,56.29v-18.64h4.1v14.94h9.29v3.7h-13.39Z"/>
        <path class="cls-1" d="M280.43,56.42h-3.62l-7.53-18.77h4.53l4.87,13.12,4.87-13.12h4.42l-7.53,18.77Z"/>
        <path class="cls-1" d="M291.03,56.29v-18.64h4.1v18.64h-4.1Z"/>
        <path class="cls-1" d="M312.75,53.24c-.33,.72-.8,1.32-1.4,1.81s-1.32,.86-2.15,1.12c-.83,.26-1.75,.39-2.76,.39-1.42,0-2.81-.24-4.18-.73s-2.61-1.24-3.73-2.25l2.42-2.9c.85,.69,1.73,1.24,2.62,1.65,.9,.41,1.88,.61,2.94,.61,.85,0,1.51-.16,1.98-.47s.71-.74,.71-1.29v-.05c0-.27-.05-.5-.15-.71-.1-.2-.28-.4-.56-.57s-.66-.35-1.15-.53c-.49-.18-1.13-.36-1.91-.56-.94-.23-1.8-.49-2.56-.77-.77-.28-1.41-.63-1.95-1.05-.53-.42-.95-.94-1.24-1.56-.29-.62-.44-1.39-.44-2.32v-.05c0-.85,.16-1.62,.48-2.3,.32-.68,.76-1.27,1.34-1.77,.57-.5,1.26-.88,2.05-1.14,.79-.27,1.67-.4,2.63-.4,1.37,0,2.62,.2,3.77,.61,1.14,.41,2.2,.99,3.15,1.76l-2.13,3.09c-.83-.57-1.65-1.02-2.45-1.34-.8-.33-1.6-.49-2.4-.49s-1.4,.16-1.8,.47c-.4,.31-.6,.7-.6,1.16v.05c0,.3,.06,.56,.17,.79,.12,.22,.32,.42,.63,.6,.3,.18,.72,.35,1.24,.51s1.19,.35,1.99,.56c.94,.25,1.78,.53,2.52,.84,.74,.31,1.36,.68,1.87,1.12,.51,.44,.89,.95,1.15,1.53,.26,.59,.39,1.29,.39,2.1v.05c0,.92-.17,1.74-.5,2.46Z"/>
        <path class="cls-1" d="M317.01,56.29v-18.64h4.1v18.64h-4.1Z"/>
        <path class="cls-1" d="M344,50.71c-.5,1.16-1.18,2.18-2.06,3.06s-1.93,1.57-3.14,2.08c-1.22,.51-2.54,.76-3.98,.76s-2.76-.25-3.97-.76c-1.21-.51-2.25-1.19-3.13-2.05-.88-.86-1.56-1.87-2.05-3.03-.49-1.16-.73-2.41-.73-3.74v-.05c0-1.33,.25-2.58,.75-3.74s1.19-2.18,2.06-3.06c.88-.88,1.93-1.57,3.14-2.08s2.54-.76,3.98-.76,2.76,.25,3.97,.76,2.25,1.19,3.13,2.05c.88,.86,1.56,1.87,2.05,3.04,.49,1.16,.73,2.41,.73,3.74v.05c0,1.33-.25,2.58-.75,3.74Zm-3.54-3.74c0-.8-.14-1.55-.41-2.26-.28-.71-.67-1.33-1.17-1.86-.51-.53-1.1-.95-1.8-1.26-.69-.31-1.45-.47-2.26-.47s-1.59,.15-2.28,.45c-.68,.3-1.27,.72-1.76,1.25-.49,.53-.87,1.15-1.14,1.85-.28,.7-.41,1.45-.41,2.25v.05c0,.8,.14,1.55,.41,2.26,.27,.71,.67,1.33,1.17,1.86,.51,.53,1.1,.95,1.78,1.26,.68,.31,1.44,.47,2.28,.47s1.57-.15,2.26-.45c.69-.3,1.28-.72,1.77-1.25,.49-.53,.87-1.15,1.14-1.85,.27-.7,.41-1.45,.41-2.25v-.05Z"/>
        <path class="cls-1" d="M361.47,56.29l-9.02-11.85v11.85h-4.05v-18.64h3.78l8.73,11.47v-11.47h4.05v18.64h-3.49Z"/>
      </g>
    </g>
  </g>
</svg>