<?xml version="1.0" encoding="UTF-8"?>
<svg id="Layer_2" data-name="Layer 2" xmlns="http://www.w3.org/2000/svg" xmlns:xlink="http://www.w3.org/1999/xlink" viewBox="0 0 499 96">
  <defs>
    <style>
      .cls-1 {
        fill: #fff;
      }

      .cls-2 {
        fill: url(#linear-gradient);
        filter: url(#outer-glow-1);
      }
    </style>
    <linearGradient id="linear-gradient" x1="249.34" y1="9.48" x2="249.34" y2="86.26" gradientUnits="userSpaceOnUse">
      <stop offset="0" stop-color="#9832b3"/>
      <stop offset="1" stop-color="#6032c2"/>
    </linearGradient>
    <filter id="outer-glow-1" filterUnits="userSpaceOnUse">
      <feOffset dx="0" dy="0"/>
      <feGaussianBlur result="blur" stdDeviation="3"/>
      <feFlood flood-color="#6032c4" flood-opacity=".2"/>
      <feComposite in2="blur" operator="in"/>
      <feComposite in="SourceGraphic"/>
    </filter>
  </defs>
  <g id="Layer_1-2" data-name="Layer 1">
    <g>
      <rect class="cls-2" x="9.1" y="9.48" width="480.48" height="76.79" rx="10" ry="10"/>
      <g>
        <path class="cls-1" d="M175.09,41.75v14.86h-4.1v-14.86h-5.67v-3.78h15.44v3.78h-5.67Z"/>
        <path class="cls-1" d="M195.21,56.6l-3.99-5.96h-3.22v5.96h-4.1v-18.64h8.52c2.22,0,3.94,.54,5.18,1.62s1.85,2.59,1.85,4.53v.05c0,1.51-.37,2.74-1.11,3.69-.74,.95-1.7,1.65-2.89,2.09l4.55,6.66h-4.79Zm.08-12.27c0-.89-.28-1.55-.85-2-.57-.44-1.36-.67-2.37-.67h-4.07v5.35h4.15c1.01,0,1.79-.24,2.33-.72,.54-.48,.81-1.12,.81-1.92v-.05Z"/>
        <path class="cls-1" d="M203.33,56.6v-18.64h4.1v18.64h-4.1Z"/>
        <path class="cls-1" d="M220.53,41.75v14.86h-4.1v-14.86h-5.67v-3.78h15.44v3.78h-5.67Z"/>
        <path class="cls-1" d="M243.21,56.6l-1.7-4.18h-7.88l-1.7,4.18h-4.18l7.99-18.77h3.78l7.99,18.77h-4.29Zm-5.64-13.84l-2.48,6.04h4.95l-2.48-6.04Z"/>
        <path class="cls-1" d="M263.44,56.6l-9.02-11.85v11.85h-4.05v-18.64h3.78l8.73,11.47v-11.47h4.05v18.64h-3.49Z"/>
        <path class="cls-1" d="M289.64,51.02c-.5,1.16-1.18,2.18-2.06,3.06s-1.93,1.57-3.14,2.08c-1.22,.51-2.54,.76-3.98,.76s-2.76-.25-3.97-.76-2.25-1.19-3.13-2.05c-.88-.86-1.56-1.87-2.05-3.04-.49-1.16-.73-2.41-.73-3.74v-.05c0-1.33,.25-2.58,.75-3.74,.5-1.16,1.19-2.18,2.06-3.06,.88-.88,1.93-1.57,3.14-2.08s2.54-.76,3.98-.76,2.76,.25,3.97,.76,2.25,1.19,3.13,2.05c.88,.86,1.56,1.87,2.05,3.04,.49,1.16,.73,2.41,.73,3.74v.05c0,1.33-.25,2.58-.75,3.74Zm-3.54-3.74c0-.8-.14-1.55-.41-2.26-.28-.71-.67-1.33-1.17-1.86s-1.1-.95-1.8-1.26-1.45-.47-2.26-.47-1.59,.15-2.28,.45c-.68,.3-1.27,.72-1.76,1.25-.49,.53-.87,1.15-1.14,1.85-.28,.7-.41,1.45-.41,2.25v.05c0,.8,.14,1.55,.41,2.26,.27,.71,.67,1.33,1.17,1.86s1.1,.95,1.78,1.26c.68,.31,1.44,.47,2.28,.47s1.57-.15,2.26-.45c.69-.3,1.28-.72,1.77-1.25,.49-.53,.87-1.15,1.14-1.85,.27-.7,.41-1.45,.41-2.25v-.05Z"/>
        <path class="cls-1" d="M308.2,47.31c-.39,.82-.93,1.5-1.61,2.05-.68,.55-1.48,.96-2.4,1.24-.91,.28-1.89,.41-2.94,.41h-3.12v5.59h-4.1v-18.64h7.61c1.12,0,2.12,.16,3,.47,.88,.31,1.62,.75,2.24,1.32,.61,.57,1.08,1.25,1.41,2.04,.33,.79,.49,1.66,.49,2.62v.05c0,1.08-.2,2.03-.59,2.85Zm-3.57-2.82c0-.92-.3-1.62-.89-2.1-.59-.48-1.41-.72-2.44-.72h-3.17v5.7h3.25c1.03,0,1.83-.27,2.4-.81,.57-.54,.85-1.21,.85-2.01v-.05Z"/>
        <path class="cls-1" d="M312,56.6v-18.64h4.1v18.64h-4.1Z"/>
        <path class="cls-1" d="M334.63,56.6l-1.7-4.18h-7.88l-1.7,4.18h-4.18l7.99-18.77h3.78l7.99,18.77h-4.29Zm-5.64-13.84l-2.48,6.04h4.95l-2.48-6.04Z"/>
      </g>
    </g>
  </g>
</svg>